<?xml version="1.0" encoding="UTF-8" standalone="no"?>
<!-- Created with Inkscape (http://www.inkscape.org/) -->

<svg
   version="1.1"
   id="svg824"
   width="437"
   height="436.59174"
   viewBox="0 0 437.00001 436.59175"
   sodipodi:docname="seaweedfs.svg.2024_07_29_16_04_23.0.svg"
   inkscape:version="1.1.1 (c3084ef, 2021-09-22)"
   xmlns:inkscape="http://www.inkscape.org/namespaces/inkscape"
   xmlns:sodipodi="http://sodipodi.sourceforge.net/DTD/sodipodi-0.dtd"
   xmlns:xlink="http://www.w3.org/1999/xlink"
   xmlns="http://www.w3.org/2000/svg"
   xmlns:svg="http://www.w3.org/2000/svg">
  <defs
     id="defs828">
    <linearGradient
       inkscape:collect="always"
       id="linearGradient25431">
      <stop
         style="stop-color:#0569b4;stop-opacity:1;"
         offset="0"
         id="stop25427" />
      <stop
         style="stop-color:#4184c8;stop-opacity:1"
         offset="0.4744136"
         id="stop25981" />
      <stop
         style="stop-color:#0569b4;stop-opacity:0.92477876"
         offset="1"
         id="stop25429" />
    </linearGradient>
    <linearGradient
       inkscape:collect="always"
       id="linearGradient22881">
      <stop
         style="stop-color:#034f87;stop-opacity:1"
         offset="0"
         id="stop22877" />
      <stop
         style="stop-color:#50b1fa;stop-opacity:0"
         offset="1"
         id="stop22879" />
    </linearGradient>
    <linearGradient
       inkscape:collect="always"
       id="linearGradient21639">
      <stop
         style="stop-color:#2e82cf;stop-opacity:1"
         offset="0"
         id="stop21635" />
      <stop
         style="stop-color:#0066a5;stop-opacity:1"
         offset="1"
         id="stop21637" />
    </linearGradient>
    <linearGradient
       inkscape:collect="always"
       id="linearGradient19625">
      <stop
         style="stop-color:#88a3d0;stop-opacity:1"
         offset="0"
         id="stop19621" />
      <stop
         style="stop-color:#5d83bf;stop-opacity:1"
         offset="1"
         id="stop19623" />
    </linearGradient>
    <radialGradient
       inkscape:collect="always"
       xlink:href="#linearGradient19625"
       id="radialGradient19627"
       cx="25.020868"
       cy="23.369808"
       fx="25.020868"
       fy="23.369808"
       r="3.9694827"
       gradientTransform="matrix(2.4252415,-0.02082447,0.02181189,2.5402371,-133.80669,-136.47206)"
       gradientUnits="userSpaceOnUse" />
    <radialGradient
       inkscape:collect="always"
       xlink:href="#linearGradient19625"
       id="radialGradient21589"
       cx="10.763105"
       cy="45.500729"
       fx="10.763105"
       fy="45.500729"
       r="2.3373196"
       gradientTransform="matrix(3.1669355,0,0,3.2457102,-151.85478,-155.22323)"
       gradientUnits="userSpaceOnUse" />
    <radialGradient
       inkscape:collect="always"
       xlink:href="#linearGradient19625"
       id="radialGradient21591"
       cx="25.151409"
       cy="106.26995"
       fx="25.151409"
       fy="106.26995"
       r="2.347388"
       gradientTransform="matrix(3.1669355,0,0,3.2908805,-151.85478,-164.81056)"
       gradientUnits="userSpaceOnUse" />
    <radialGradient
       inkscape:collect="always"
       xlink:href="#linearGradient19625"
       id="radialGradient21593"
       cx="21.516373"
       cy="113.90106"
       fx="21.516373"
       fy="113.90106"
       r="1.2429004"
       gradientTransform="matrix(3.1669355,0,0,3.6313007,-151.85478,-204.53064)"
       gradientUnits="userSpaceOnUse" />
    <linearGradient
       inkscape:collect="always"
       xlink:href="#linearGradient21639"
       id="linearGradient21641"
       x1="114.68082"
       y1="98.406364"
       x2="109.24162"
       y2="136.83397"
       gradientUnits="userSpaceOnUse"
       gradientTransform="matrix(3.1669355,0,0,3.1669355,-151.85478,-151.63893)" />
    <radialGradient
       inkscape:collect="always"
       xlink:href="#linearGradient22881"
       id="radialGradient22883"
       cx="38.979542"
       cy="115.14806"
       fx="38.979542"
       fy="115.14806"
       r="27.733946"
       gradientTransform="matrix(5.4446674,-0.00544507,0.00556237,5.561902,-241.28022,-421.53182)"
       gradientUnits="userSpaceOnUse" />
    <linearGradient
       inkscape:collect="always"
       xlink:href="#linearGradient25431"
       id="linearGradient25433"
       x1="80.262825"
       y1="93.085884"
       x2="80.429276"
       y2="32.328072"
       gradientUnits="userSpaceOnUse"
       gradientTransform="matrix(3.1669355,0,0,3.1669355,-151.85478,-151.63893)" />
  </defs>
  <sodipodi:namedview
     id="namedview826"
     pagecolor="#ffffff"
     bordercolor="#666666"
     borderopacity="1.0"
     inkscape:pageshadow="2"
     inkscape:pageopacity="0.0"
     inkscape:pagecheckerboard="0"
     showgrid="false"
     showguides="false"
     inkscape:zoom="2.4803992"
     inkscape:cx="340.06622"
     inkscape:cy="223.95588"
     inkscape:window-width="3440"
     inkscape:window-height="1387"
     inkscape:window-x="0"
     inkscape:window-y="25"
     inkscape:window-maximized="1"
     inkscape:current-layer="g830"
     fit-margin-top="0"
     fit-margin-left="0"
     fit-margin-right="0"
     fit-margin-bottom="0" />
  <g
     inkscape:groupmode="layer"
     inkscape:label="Image"
     id="g830"
     transform="translate(148.42187,148.31736)">
    <path
       style="color:#000000;fill:#005dad;stroke-width:4.7504;-inkscape-stroke:none"
       d="m -123.15443,-146.45374 c -12.68161,0 -22.89224,10.21063 -22.89224,22.89225 v 386.05686 c 0,12.68161 10.21063,22.89222 22.89224,22.89222 h 386.47127 c 12.68162,0 22.88609,-10.21061 22.88609,-22.89222 v -386.05686 c 0,-12.68162 -10.20447,-22.89225 -22.88609,-22.89225 z"
       id="path28823" />
    <path
       id="path11312"
       style="opacity:1;fill:url(#linearGradient21641);stroke-width:2.91212"
       d="m 270.2248,217.48749 a 63.442303,63.416565 0 0 1 -63.4423,63.41656 63.442303,63.416565 0 0 1 -63.4423,-63.41656 63.442303,63.416565 0 0 1 63.4423,-63.41657 63.442303,63.416565 0 0 1 63.4423,63.41657 z" />
    <path
       id="rect27092"
       style="opacity:1;fill:#0f5e9c;stroke-width:3.16694"
       d="m 184.9966,232.79112 h 40.11811 v 32.09449 H 184.9966 Z" />
    <g
       id="g4961"
       transform="matrix(3.1669355,0,0,3.1669355,-151.85478,-151.63893)">
      <path
         id="path4810"
         style="fill:#59686f"
         d="m 114.84587,108.23793 a 3.3700454,3.039649 0 0 1 -3.37005,3.03965 3.3700454,3.039649 0 0 1 -3.37004,-3.03965 3.3700454,3.039649 0 0 1 3.37004,-3.03965 3.3700454,3.039649 0 0 1 3.37005,3.03965 z" />
      <path
         id="path4810-8"
         style="fill:#59686f"
         d="m 123.23793,109.95599 a 3.3700454,3.039649 0 0 1 -3.37004,3.03965 3.3700454,3.039649 0 0 1 -3.37005,-3.03965 3.3700454,3.039649 0 0 1 3.37005,-3.03965 3.3700454,3.039649 0 0 1 3.37004,3.03965 z" />
      <path
         id="path4810-8-5"
         style="fill:#59686f"
         d="m 117.75335,114.58154 a 3.3700454,3.039649 0 0 1 -3.37004,3.03965 3.3700454,3.039649 0 0 1 -3.37005,-3.03965 3.3700454,3.039649 0 0 1 3.37005,-3.03965 3.3700454,3.039649 0 0 1 3.37004,3.03965 z" />
    </g>
    <path
       style="fill:#d3d6da;fill-opacity:1;stroke-width:1.01342"
       d="m 199.94434,220.03836 c -4.72833,-1.44048 1.19939,-3.68363 0.36331,-4.00447 -2.33184,-0.89481 0.90695,-3.72783 3.94363,-6.11649 2.66761,-2.09832 2.76312,-2.10424 3.46219,-0.2144 0.39536,1.06884 1.44108,2.2205 2.3238,2.55923 1.87457,0.71931 6.87119,-0.14885 6.87119,-1.45581 0,-1.83815 1.39489,-0.40749 2.53499,2.0948 1.99444,4.37725 1.93275,8.84149 -1.03378,8.84149 -1.77615,0 -3.42808,0.65723 -3.78626,2.02683 -15.46539,4.36873 -11.18204,0.41224 -14.67907,-3.73118 z m 23.40743,-11.5775 c -4.46323,-1.76797 -7.65588,-9.66818 -7.65588,-14.26755 0,-5.96907 5.99371,-12.66774 11.33462,-12.66774 12.01751,0 19.14137,9.51829 13.59078,28.00236 -1.36334,4.54002 -14.74592,-0.0675 -17.26952,-1.06707 z m 8.33334,-7.23106 c 5.04468,-3.53345 -0.0253,-11.70762 -5.66694,-9.13778 -4.5146,2.05699 -2.59116,10.53763 2.37333,10.68454 0.57271,0.0158 2.05483,-0.67912 3.29361,-1.54676 z m -4.58825,-3.21653 c -1.70819,-0.59586 -1.61368,-3.97669 0.12984,-4.64577 1.56162,-0.59921 3.67048,1.09392 3.67048,2.9469 0,1.42683 -2.00749,2.32421 -3.80032,1.69887 z m -36.13914,7.21795 c -7.08963,-3.93735 -6.11038,-17.95959 0.29674,-24.09787 5.94944,-5.69995 19.12316,-5.59693 22.08662,1.49564 1.95837,4.68707 1.3958,9.43307 -1.1006,13.87482 -3.61972,6.44041 -15.49876,11.93957 -21.28263,8.72741 z m 12.75068,-10.18157 c 2.29964,-2.08112 2.21746,-4.61061 0.0377,-7.01938 -2.39183,-2.64297 -5.65415,-2.74757 -7.62782,0.26475 -1.53777,2.34695 -1.81487,3.5515 -0.2771,5.89845 1.91435,2.92166 5.19114,3.27835 7.86739,0.85634 z m -6.57154,-3.76891 c -0.74034,-1.92923 1.83786,-4.08585 3.92642,-3.28439 0.88437,0.33937 1.45559,1.41647 1.26934,2.39357 -0.42465,2.228 -4.4198,2.91298 -5.19576,0.89082 z"
       id="path3004"
       sodipodi:nodetypes="csssssssccssssssscsssssssssssssssssssss" />
    <path
       id="rect7701"
       style="fill:#98c6d8;fill-opacity:1;stroke:none;stroke-width:3.16694"
       d="m 209.42982,217.34 -1.55721,-0.68517 c -1.30918,-0.28534 -2.14706,0.9841 -2.43237,2.29331 l -0.767,3.50713 c -0.28534,1.30918 0.54025,2.5909 1.84946,2.87621 l 2.85765,0.62474 c 1.30918,0.28534 2.59708,-0.54025 2.88242,-1.84946 l 0.84098,-5.12065 c 0.28534,-1.30918 -0.62043,-0.98356 -1.92961,-1.26886 l -1.24948,-0.27204 c -0.16437,0.83521 -0.33614,1.71309 -0.47007,2.3752 -0.10039,0.49657 -0.19477,0.94701 -0.27838,1.34842 -0.0836,0.4014 -0.15549,0.75575 -0.22263,1.0639 -0.0675,0.30814 -0.12826,0.56878 -0.17925,0.78552 -0.0513,0.21662 -0.0947,0.38612 -0.12984,0.51339 -0.019,0.0637 -0.0285,0.11908 -0.0434,0.16088 -0.0127,0.0415 -0.0285,0.0728 -0.037,0.0928 -0.006,0.009 -0.01,0.0127 -0.0127,0.019 -0.003,0.003 -0.01,0.006 -0.0127,0.006 l -0.006,-0.006 c -0.002,-0.006 -0.006,-0.019 -0.006,-0.0317 -0.002,-0.0222 -0.002,-0.0551 0,-0.0988 0.002,-0.044 8.9e-4,-0.096 0.006,-0.16088 0.01,-0.12953 0.0317,-0.30181 0.0557,-0.51336 0.0253,-0.21155 0.0592,-0.4632 0.0988,-0.75465 0.0396,-0.29136 0.0884,-0.62636 0.1422,-0.99584 0.0538,-0.36949 0.11179,-0.77293 0.17925,-1.21851 0.0678,-0.44562 0.14156,-0.93374 0.22263,-1.45359 0.0567,-0.36224 0.13491,-0.83959 0.19794,-1.23707 z"
       sodipodi:nodetypes="ccccccccccsscccccccccsccsscccc" />
    <path
       style="fill:#98c6d8;fill-opacity:1;stroke-width:1.01342"
       d="m 164.68687,203.38819 c -0.3053,-0.79531 0.12509,-2.01027 0.95586,-2.69984 1.21623,-1.0094 1.82057,-0.94403 3.09992,0.33535 0.87407,0.87404 1.2803,2.08897 0.90277,2.69984 -0.98533,1.59427 -4.30422,1.36979 -4.95855,-0.33535 z"
       id="path3004-0"
       sodipodi:nodetypes="sssss" />
    <path
       style="fill:#98c6d8;fill-opacity:1;stroke-width:1.01342"
       d="m 172.07664,191.10213 c -1.07704,-1.29775 -1.0105,-1.86431 0.38263,-3.25742 1.57295,-1.57295 1.7999,-1.57295 3.37285,0 1.39313,1.39311 1.45967,1.95967 0.38263,3.25742 -0.71709,0.86403 -1.64817,1.57099 -2.06905,1.57099 -0.42089,0 -1.35197,-0.70696 -2.06906,-1.57099 z"
       id="path3004-0-3"
       sodipodi:nodetypes="ssssss" />
    <path
       style="fill:#98c6d8;fill-opacity:1;stroke-width:1.01342"
       d="m 172.07661,175.90084 c -1.07125,-1.29078 -1.03508,-1.83971 0.20268,-3.0775 1.635,-1.635 4.9066,-0.96338 4.9066,1.00727 0,1.30541 -2.00071,3.64122 -3.11886,3.64122 -0.37766,0 -1.27336,-0.70696 -1.99045,-1.57099 z"
       id="path3004-0-3-0"
       sodipodi:nodetypes="ssssss" />
    <path
       style="fill:#7ba9b9;fill-opacity:1;stroke-width:1.01342"
       d="m 207.90174,264.03919 c -10.15221,-1.29227 -23.65127,-4.9897 -25.68761,-6.81645 -3.86933,-3.47109 -1.40755,-19.22406 3.17507,-23.25091 2.76733,-2.4317 13.74666,-5.64136 20.18934,-4.12247 7.39524,1.7435 20.29357,10.45992 21.24979,13.04483 1.12825,3.04998 -0.60881,15.13149 -2.78747,18.12194 -1.89136,2.59603 -9.01205,3.93029 -16.13912,3.02306 z m 7.7742,-7.38783 c 2.2737,-2.05762 2.41105,-6.74104 0.26064,-8.8913 -3.41953,-3.41956 -10.56851,-0.77273 -10.56851,3.91285 0,5.63917 6.24488,8.65533 10.30774,4.97845 z m -5.88759,-2.88318 c -0.81457,-2.12276 0.29484,-4.56038 2.07545,-4.56038 2.18826,0 2.87197,1.69893 1.62296,4.03274 -1.29635,2.42229 -2.88441,2.64886 -3.69841,0.52764 z m -6.49329,0.0557 c 2.0206,-2.43468 0.86919,-5.91583 -2.22905,-6.73921 -3.30505,-0.87831 -4.89684,0.84529 -2.43987,2.64186 2.44573,1.78834 2.05113,2.70099 -1.00972,2.33539 -3.62642,-0.43314 -5.11067,-2.98129 -3.84497,-6.60106 1.28181,-3.66598 5.83919,-4.50395 7.51058,-1.38097 1.32365,2.47328 2.62881,2.67935 3.44806,0.54445 0.99097,-2.58244 -2.96397,-5.55081 -7.39568,-5.55081 -7.35534,0 -10.89245,8.52821 -5.69342,13.72721 2.86981,2.86984 9.62897,3.46323 11.65407,1.02314 z"
       id="path3004-5"
       sodipodi:nodetypes="sssssssscsssssssssssssssss" />
    <path
       style="fill:#a6b3c2;fill-opacity:1;stroke-width:1.01342"
       d="m 214.4047,270.20505 c -4.11097,-3.89621 5.40282,-7.50662 10.48578,-0.92975 2.59268,3.12396 -2.266,5.08864 -10.48578,0.92975 z m -42.08316,-8.82203 c -4.11714,-4.11715 2.53361,-5.2733 7.39796,-1.28603 l 4.08662,2.07352 -5.65742,0.42487 c -2.53608,0.003 -5.1583,-0.54221 -5.82716,-1.21107 z m 57.85133,-23.42611 c -0.84624,-1.36923 8.92756,-4.80731 9.99554,-4.14726 0.47463,0.29326 0.86296,2.5586 0.86296,5.03394 0,3.24297 -0.40806,4.50056 -1.4603,4.50056 -0.8032,0 -9.06083,-4.84132 -9.3982,-5.38724 z m -20.20866,-20.35709 c -11.33592,-1.0253 -9.81066,-5.31334 -6.85601,-7.80274 1.70502,-1.43654 2.94361,-2.16441 4.66543,-2.50056 0,0 -0.12313,4.14568 2.26364,4.96571 1.89889,0.6524 4.84809,-0.76551 5.42731,-1.93711 5.16278,-10.44278 2.83877,0.0738 3.97887,2.5761 4.33937,13.45587 -4.83062,6.60927 -9.47924,4.6986 z m -41.27438,0.40593 c -2.0157,-2.23113 -3.66491,-4.51133 -3.66491,-5.06709 0,-1.28724 3.16554,-1.298 6.52126,-0.0222 2.19611,0.83496 13.48149,1.41204 13.48149,4.85782 0,2.24333 -4.37905,7.84561 -4.87157,7.84561 -0.49253,0 -9.45058,-5.38306 -11.46627,-7.61417 z"
       id="path3004-2"
       sodipodi:nodetypes="ccccsccccssssscssssccsssssss" />
    <path
       id="path11158"
       style="fill:#4c9cbb;fill-opacity:1;stroke:none;stroke-width:3.16694"
       d="m 209.42982,217.34 c -0.063,0.39748 -0.14124,0.87483 -0.19793,1.23707 -0.0814,0.51985 -0.15486,1.00797 -0.22264,1.45359 -0.0678,0.44559 -0.12541,0.84902 -0.17925,1.21851 -0.0538,0.36949 -0.1026,0.70442 -0.14219,0.99584 -0.0396,0.29136 -0.0738,0.54313 -0.0988,0.75465 -0.0253,0.21155 -0.045,0.38371 -0.0557,0.51336 -0.006,0.0649 -0.003,0.11686 -0.006,0.16088 -0.002,0.044 -0.002,0.076 0,0.0988 0.001,0.0127 0.003,0.0253 0.006,0.0317 0,0 0.006,0.006 0.006,0.006 0.003,8.6e-4 0.01,-0.002 0.0127,-0.006 0.003,-0.003 0.006,-0.01 0.0127,-0.019 0.01,-0.019 0.0222,-0.0513 0.037,-0.0928 0.0127,-0.0415 0.0253,-0.0972 0.0434,-0.16088 0.0351,-0.12731 0.0789,-0.29674 0.12985,-0.51339 0.0513,-0.21662 0.11211,-0.47742 0.17924,-0.78553 0.0671,-0.30814 0.13903,-0.66249 0.22264,-1.0639 0.0836,-0.40141 0.17798,-0.85184 0.27837,-1.34842 0.13397,-0.66211 0.30593,-1.53998 0.47007,-2.3752 z" />
    <path
       style="fill:url(#radialGradient22883);fill-opacity:1;stroke-width:1.01342"
       d="m -53.520044,282.47205 c -13.677994,-5.28318 -28.657188,-17.64053 -36.697077,-30.27388 -10.181919,-15.9992 -13.188469,-27.61076 -11.209229,-43.29121 1.854865,-14.69512 6.891309,-22.9892 21.524343,-35.44643 20.499051,-17.45106 36.862277,-25.35271 55.231355,-26.67071 27.7383838,-1.99027 43.601741,6.8227 51.264012,28.47998 2.578614,7.28841 3.123681,25.71985 1.226338,41.46921 -0.671482,5.57381 -1.730293,15.77375 -2.352928,22.66649 -2.179875,24.13217 -8.589467,36.28259 -22.9880787,43.57763 -3.990551,2.0218 -5.7284955,2.15713 -26.8556133,2.0911 -21.577471,-0.0675 -22.882442,-0.184 -29.143122,-2.60218 z M -146.47366,169.1083 c 0.006,-3.34428 0.19488,-4.59022 0.42043,-2.76876 0.22555,1.82147 0.2209,4.5577 -0.0103,6.08052 -0.23124,1.52282 -0.41578,0.0326 -0.41009,-3.31176 z m -0.23402,-8.1918 c 0.0486,-1.18059 0.28877,-1.42072 0.61228,-0.61228 0.29274,0.73156 0.25674,1.60564 -0.08,1.94239 -0.33675,0.33675 -0.57627,-0.26181 -0.53227,-1.33011 z m 0.08,-81.495812 c 0,-1.393452 0.23002,-1.9635 0.51115,-1.266774 0.28114,0.696725 0.28114,1.836822 0,2.533548 -0.28113,0.696726 -0.51115,0.126677 -0.51115,-1.266774 z"
       id="path2364"
       sodipodi:nodetypes="ssssssssssssssssssssssss" />
    <path
       style="fill:url(#linearGradient25433);fill-opacity:1;stroke-width:1.01342"
       d="m 98.4598,156.50835 c -3.065593,-1.0175 -10.454554,-4.18525 -16.419927,-7.03944 -11.150137,-5.33489 -16.662175,-6.4188 -19.288075,-3.7929 -0.768083,0.76808 -4.334964,2.93405 -7.92639,4.81328 -5.522841,2.88983 -7.786211,3.47058 -14.676409,3.76577 -7.17879,0.30754 -9.104996,-0.0241 -16.214709,-2.7916 -9.708498,-3.77914 -16.2585721,-7.46409 -15.9466733,-8.97131 0.125854,-0.60823 -2.688611,-2.73743 -6.2544062,-4.73153 -7.0866516,-3.96308 -9.424002,-6.98175 -12.2155955,-15.77636 -2.12584,-6.69722 -5.501125,-10.56504 -11.078457,-12.69504 -2.488786,-0.95048 -5.105214,-2.98313 -6.545495,-5.08509 -1.319665,-1.92592 -2.991895,-3.50167 -3.716066,-3.50167 -0.72418,0 -2.274284,-2.559404 -3.444673,-5.687567 -1.654549,-4.422166 -2.079242,-7.635101 -1.908857,-14.441225 0.12503,-4.99485 -0.269475,-9.650945 -0.918757,-10.843293 -3.153039,-5.790305 -5.794143,-26.792822 -3.369233,-26.792822 0.517867,0 1.456943,-2.622223 2.086852,-5.827162 2.324157,-11.825305 3.612701,-14.217431 12.903717,-23.955308 9.006096,-9.4392504 15.903774,-19.9040119 13.620964,-20.6649474 -0.654494,-0.2181701 -0.899489,-0.8666984 -0.544447,-1.4411741 0.355052,-0.5744758 1.02185,-6.3500255 1.481781,-12.8345415 0.809418,-11.411973 2.536082,-18.315883 7.510907,-30.031577 1.9474468,-4.586258 6.3060811,-10.721027 7.3903005,-10.401828 0.3954141,0.116416 1.9697199,-0.624086 3.4984535,-1.645553 3.662833,-2.447417 6.410799,-1.663645 12.907618,3.681496 12.910843,10.622162 21.964405,14.065903 31.843695,12.112515 3.781768,-0.747739 5.365457,-0.70768 5.910949,0.149543 0.55638,0.87434 0.74905,0.865207 0.760644,-0.03607 0.0082,-0.663827 -0.491508,-1.520319 -1.111205,-1.903322 -0.647201,-0.399987 0.970147,-1.725986 3.800323,-3.11571 2.709874,-1.330651 7.456638,-5.150517 10.548368,-8.48859 6.037133,-6.518162 12.501662,-9.655531 22.28189,-10.813853 5.634682,-0.667346 15.349483,2.085477 14.565903,4.127448 -0.5838,1.521364 7.18014,5.941057 15.41115,8.772943 4.75022,1.634313 8.49166,1.984687 21.07174,1.973305 16.42013,-0.01488 20.25805,-0.517924 19.47711,-2.553035 -0.63554,-1.656199 2.48487,-2.470694 9.50004,-2.479707 6.35313,-0.0082 8.79382,1.306215 14.70548,7.919233 5.02197,5.617827 10.52056,9.379598 18.76035,12.834608 3.61034,1.513845 6.92894,3.387417 7.37466,4.163494 0.54446,0.947981 2.70624,1.40793 6.58722,1.401546 10.98959,-0.01805 21.05173,-8.38044 28.73069,-23.877224 3.76565,-7.599385 4.14711,-9.121199 4.59292,-18.322784 0.40299,-8.317661 0.14694,-10.92796 -1.49625,-15.252449 -1.38658,-3.64919 -1.66211,-5.537741 -0.91667,-6.28319 0.74543,-0.745449 0.60146,-1.606049 -0.47903,-2.863229 -0.84966,-0.98858 -1.83049,-2.60234 -2.17962,-3.58612 -0.96021,-2.70573 -5.01848,-3.78615 -14.18049,-3.77521 -6.57928,0.008 -9.35861,0.50529 -13.43883,2.40521 -6.5051,3.02907 -8.79727,7.32717 -9.36345,17.557872 -0.33766,6.100395 -0.0545,7.871529 1.71771,10.738787 1.16714,1.88845 1.85769,3.697903 1.5346,4.021001 -0.32309,0.3231 0.82306,1.316853 2.54698,2.208335 3.83022,1.980675 3.94549,1.272649 1.1076,-6.801684 -3.7283,-10.607682 -2.02747,-20.773731 3.81638,-22.810911 1.9756,-0.6887 5.77557,-0.7442 10.98135,-0.1604 8.85041,0.99253 9.50325,1.47998 14.0789,10.512343 3.23445,6.384808 3.19132,7.676734 -0.50991,15.274218 -2.33137,4.785566 -3.94192,6.713216 -6.84058,8.187441 -2.08521,1.060562 -4.01932,2.203516 -4.29801,2.539952 -0.27869,0.336436 -3.99613,0.921435 -8.26101,1.300001 -7.33462,0.651046 -7.85571,0.55955 -9.62749,-1.690503 -1.03023,-1.308341 -3.15353,-3.21711 -4.71848,-4.241708 -4.41483,-2.890567 -6.78218,-8.53117 -6.78218,-16.159821 0,-6.106792 0.42431,-7.964729 3.37608,-14.782643 1.54132,-3.56005 3.82822,-6.13191 4.87651,-5.48405 0.48828,0.30178 2.05116,-0.36646 3.47309,-1.48496 5.85436,-4.60503 21.85416,-4.95117 28.47059,-0.61592 1.33353,0.87376 2.83124,1.33734 3.32822,1.03017 1.38937,-0.85866 4.79902,4.07056 7.22109,10.439196 2.52557,6.640874 3.5642,23.885677 1.88883,31.361481 -1.51807,6.773949 -6.30749,17.281964 -8.09187,17.753632 -3.08115,0.814444 -5.24112,11.420314 -4.86122,23.869319 l 0.34875,11.426516 5.86617,5.5455508 c 3.22641,3.0500597 6.25116,5.3076319 6.72167,5.0168312 1.92641,-1.1905746 6.83792,14.821511 6.97907,22.752563 0.0253,1.393452 0.94621,5.745135 2.04755,9.670402 1.10136,3.925277 2.3277,9.739771 2.72515,12.921097 0.61818,4.947605 0.48593,5.784243 -0.9142,5.784243 -1.26998,0 -1.6369,1.046235 -1.6369,4.667464 0,10.123686 -5.67008,25.202394 -13.71767,36.480108 -2.54954,3.572832 -4.38314,6.904375 -4.07474,7.403424 0.30846,0.499049 -0.80652,3.506703 -2.47772,6.683673 -1.67119,3.17697 -3.03851,6.62497 -3.03851,7.66222 0,4.35584 -4.27239,13.07131 -8.10505,16.53387 -5.19317,4.69171 -11.77298,8.03485 -16.33448,8.29937 -3.18043,0.18445 -15.38709,5.48319 -23.19118,10.06698 -3.12143,1.83341 -11.41725,1.88169 -20.52174,0.11943 -3.76232,-0.72822 -6.84059,-0.93948 -6.84059,-0.46945 0,1.59651 -20.10972,0.98868 -23.38873,-0.70697 -3.33378,-1.72395 -3.43455,-1.68754 -10.33188,3.73391 -6.00021,4.7163 -17.27373,10.5387 -17.73367,9.15885 -0.22152,-0.66461 -1.47462,-0.69861 -3.57258,-0.0969 -4.84598,1.38979 -10.70516,1.03246 -16.92591,-1.03228 z M 236.49547,-72.291215 c 2.11367,-2.063952 3.84304,-4.313094 3.84304,-4.998089 0,-0.684999 1.36812,-2.219635 3.04026,-3.410305 4.08113,-2.906012 3.94153,-6.289385 -0.53363,-12.934623 l -3.57389,-5.306926 h -5.87694 c -4.85118,0 -6.26578,0.413887 -8.10463,2.371272 -4.59858,4.894974 -4.87382,12.241029 -0.52065,13.896108 2.14158,0.814219 2.39503,1.538851 2.39503,6.847278 0,3.265184 0.30402,6.240722 0.6756,6.612311 1.62955,1.629557 5.0988,0.396285 8.65581,-3.077026 z"
       id="path2364-8"
       sodipodi:nodetypes="ssssssssssssssssssssssssssscsssssssscsssssssssssssssssssssssssssssssssssscsscsssssssssssssssscsssssscssssss" />
    <path
       style="fill:#3060ad;fill-opacity:1;stroke:none;stroke-width:3.16694px;stroke-linecap:butt;stroke-linejoin:miter;stroke-opacity:1"
       d="m -40.550031,191.89424 7.776705,-4.36923 4.364243,31.17316 -0.311722,22.44468 -11.657837,5.78725 -7.357789,-13.26882 z"
       id="path1136" />
    <path
       style="fill:#606368;fill-opacity:1;stroke:none;stroke-width:3.16694px;stroke-linecap:butt;stroke-linejoin:miter;stroke-opacity:1"
       d="m -30.279459,204.35851 1.870389,23.69162 11.845798,4.05251 0.311722,-50.1888 -9.663679,2.49386 z"
       id="path7328" />
    <path
       style="fill:#eec23b;stroke-width:1.01342"
       d="m -40.378652,246.9301 c -7.027373,-3.36863 -16.955266,-13.35636 -20.166089,-20.28761 -1.89061,-4.08132 -3.073726,-5.38952 -5.320451,-5.88299 -3.320434,-0.72928 -3.258733,-0.52511 -1.715371,-5.67638 0.81713,-2.72734 1.747911,-3.91792 3.063009,-3.91792 1.039047,0 5.468766,-3.3476 9.843821,-7.4391 4.375055,-4.09149 9.342684,-8.42746 11.039177,-9.63546 l 3.084525,-2.1964 1.093863,5.10051 c 4.111506,19.17127 4.059527,30.13792 -0.171014,36.08375 -3.209914,4.51142 -2.339245,6.46245 2.883928,6.46245 2.458739,0 3.737237,-0.62503 4.664092,-2.2802 1.636156,-2.92181 1.506204,-20.04049 -0.255794,-33.69619 -2.106949,-16.3292 -2.2028,-15.80972 3.344082,-18.12345 2.640312,-1.10131 4.991261,-1.80646 5.224347,-1.56697 0.233087,0.23942 -0.229729,4.08376 -1.028478,8.54281 -2.846169,15.88886 -1.869901,31.62574 2.169965,34.97855 1.232217,1.02266 1.347037,-1.15489 0.811718,-15.39489 -0.690503,-18.36807 -0.0837,-24.9913 2.592317,-28.29606 1.540093,-1.90194 2.421464,-2.11732 6.278326,-1.53422 7.3978283,1.11837 7.3797578,1.07679 5.1531234,11.85817 -1.0831932,5.24483 -2.2898214,11.93552 -2.6813934,14.8682 l -0.711959,5.33213 2.5957312,-0.98691 c 1.4276546,-0.54278 4.4996042,-1.95815 6.8265449,-3.14527 l 4.2308041,-2.15839 -0.7014192,2.37352 c -0.3857771,1.30547 -0.96833171,6.10465 -1.2945514,10.66488 l -0.59312268,8.29132 -4.96610002,-1.95745 c -2.7313426,-1.0766 -5.4052399,-1.95745 -5.9419849,-1.95745 -0.577396,0 -0.975904,5.58663 -0.975904,13.68116 0,11.02166 -0.274542,13.68116 -1.412402,13.68116 -9.977675,-1.44276 -16.698627,-0.9522 -26.96334,-5.7853 z"
       id="path2378"
       sodipodi:nodetypes="csssssscsssssssssssssscsscsscssscc" />
    <path
       style="fill:#ffffff;stroke-width:1.01342"
       d="m -22.959648,251.64273 c 0,-0.40521 0.531712,-5.72164 1.519144,-12.847 0.987447,-7.12538 2.069779,-15.5836 2.405179,-18.79604 0.335392,-3.21248 0.985054,-5.60893 1.443686,-5.32549 2.088984,1.29107 4.041447,27.81982 3.300707,33.96827 -0.470407,3.90457 -1.165971,3.95784 -2.241012,3.77866 -1.929373,-0.32157 -4.184219,-0.49199 -6.427704,-0.77831 z m -25.755436,-29.11136 c -2.752545,-0.4562 -5.32937,-3.88751 -5.32937,-7.0966 0,-2.90889 4.250595,-7.32908 7.047876,-7.32908 4.503667,0 8.029068,7.74519 5.350997,11.75598 -1.192827,1.78641 -4.610865,3.07719 -7.069503,2.6697 z"
       id="path2384"
       sodipodi:nodetypes="sssssscssssss" />
    <path
       style="fill:#0996d1;stroke-width:1.01342"
       d="m 196.07647,266.9123 c -20.1534,-5.28261 -23.29525,-10.20207 -22.28427,-34.89238 0.32132,-7.8471 0.83113,-16.09164 1.13297,-18.32117 1.68206,-12.42585 4.07841,-22.92095 6.31427,-27.65444 1.97721,-4.18586 2.2724,-5.67131 1.34829,-6.78478 -3.26007,-3.92817 2.51322,-10.06167 7.13998,-7.58547 1.64425,0.87996 3.03048,0.77561 6.12039,-0.4607 9.36818,-3.74841 27.57182,-0.28312 38.6877,7.36493 4.01273,2.76084 5.02447,3.06807 6.68616,2.03033 4.46313,-2.78729 10.26008,5.35994 6.65117,9.34774 -1.39422,1.54059 -1.49005,2.41951 -0.55593,5.09915 2.35861,6.76594 2.19067,7.54117 -9.19719,42.4586 -7.29548,22.36927 -10.41136,29.00105 -14.25568,30.34117 -4.84484,1.68893 -19.66584,1.18599 -27.78786,-0.94298 z m 25.61313,-6.81949 c 1.38845,-2.06754 2.4589,-5.75927 2.92096,-10.07371 0.8462,-7.90176 0.92022,-7.80273 -9.60753,-12.85788 -7.91278,-3.79953 -19.49312,-4.89878 -25.43829,-2.41473 -3.08678,1.28974 -3.78835,2.27725 -5.40041,7.60156 -2.83618,9.36726 -1.07043,14.97521 5.33027,16.92851 3.93038,1.19945 24.82725,4.42665 27.50252,4.24734 1.57343,-0.10546 3.31356,-1.37784 4.69248,-3.43109 z m -9.28964,-38.51032 c 0.5394,-1.01741 0.70379,-2.59638 0.70379,-2.59638 1.41524,0.29516 2.39002,0.38257 3.12827,0.49034 1.14101,0.16658 2.52021,-0.39571 3.06493,-1.24949 1.21271,-1.90079 -3.82243,-10.82914 -6.60518,-11.71237 -2.64706,-0.84015 -10.86332,4.26659 -10.86332,6.75197 0,1.10878 1.85851,2.27842 2.69459,2.59926 0.45458,0.1745 1.26598,0.66101 2.24108,1.2639 -0.58959,1.24169 -0.69309,1.6233 -0.79538,2.36082 -0.32325,2.32767 0.37006,2.89195 3.32094,3.57097 2.20761,0.23784 2.50606,-0.19983 3.11028,-1.47902 z m 23.4929,-16.78596 c 11.02664,-10.10515 -0.57486,-28.33723 -13.70957,-21.54501 -3.24367,1.6774 -6.16684,7.06274 -6.16684,11.36122 0,6.65858 6.54586,13.49263 12.93598,13.50552 2.33286,0.006 4.37952,-0.97484 6.94043,-3.32173 z m -30.43621,-3.64967 c 5.69123,-3.47049 8.00525,-11.50538 4.99179,-17.3328 -2.16562,-4.1878 -5.39421,-6.09169 -10.33023,-6.09169 -11.59931,0 -17.68103,16.24444 -8.72051,23.29281 3.32212,2.61316 9.88873,2.67469 14.05895,0.13174 z"
       id="path2370"
       sodipodi:nodetypes="sscssscsssssssssssssssccssssscsccsscssssssss" />
    <path
       id="path2360"
       style="fill:#359136;stroke-width:1.01342"
       d="m -47.976824,-62.377117 -2.300975,3.760736 c -1.262549,2.067224 -3.177544,6.496721 -4.261754,9.841005 -1.084213,3.344284 -2.654871,7.902195 -3.488579,10.13172 -0.833712,2.229523 -1.537357,7.472977 -1.564913,11.653332 -0.05867,8.894629 -1.199898,13.632786 -4.422575,18.3645139 -2.070761,3.0404069 -2.783527,3.3929217 -6.321501,3.1421954 -4.498771,-0.3188122 -7.638027,1.9759904 -12.265687,8.9688595 -1.449357,2.1901196 -3.128089,3.9834095 -3.72981,3.9834095 -0.601721,0 -2.16703,-1.2568269 -3.482391,-2.7896236 -1.315361,-1.5328538 -2.118968,-2.2322589 -1.781401,-1.5587245 1.097492,2.1897712 -1.507246,18.6086188 -3.686513,23.2448098 -2.521232,5.363696 -7.095667,9.129046 -12.457437,10.243057 -4.42862,0.920124 -3.78481,0.01756 -11.05335,15.457368 -5.9491,12.637045 -7.95853,14.598446 -17.55422,17.15217 -3.35344,0.892462 -6.36015,3.270257 -7.68848,5.783369 v 7.088492 c 1.03135,-0.243997 2.39957,-0.63556 4.67618,-1.354606 3.9954,-1.26191 9.29012,-2.79736 11.76467,-3.414352 5.93933,-1.480897 10.75791,-6.358877 12.29043,-12.445066 0.92546,-3.675352 2.25983,-5.623061 6.01223,-8.764744 3.72001,-3.114573 5.08815,-5.09418 5.98749,-8.665774 0.88852,-3.528634 1.83589,-4.914349 3.977224,-5.832852 4.559323,-1.955688 15.067434,-11.849394 16.781047,-15.797565 0.871585,-2.008131 2.558133,-6.312038 3.742178,-9.562659 2.127373,-5.840409 7.212024,-12.8347476 9.327616,-12.8347476 0.600125,0 3.934591,-1.8550895 7.410132,-4.11949272 8.478773,-5.52412988 9.525549,-7.95108558 9.525549,-21.99535468 0,-9.810853 0.254435,-11.432767 2.164899,-13.861528 1.901915,-2.417899 2.180001,-4.145098 2.282419,-14.282138 z M -73.57828,53.611896 c -0.376703,0.05474 -0.752942,0.203669 -1.181415,0.43298 -2.855303,1.528103 -3.799458,3.622053 -6.742108,14.962532 -1.677564,6.465026 -3.405321,10.785325 -4.97308,12.43888 -1.321154,1.393452 -2.726098,3.900924 -3.123638,5.573066 -1.795009,7.550278 -5.951929,12.905274 -12.599699,16.236726 -5.77361,2.89339 -11.02815,7.4995 -15.45737,13.55226 -2.28723,3.12562 -4.70081,6.01348 -5.36894,6.42047 -1.43366,0.87332 -4.4816,8.43236 -7.66993,19.02635 -2.59705,8.62936 -8.38879,15.85838 -11.95642,14.92542 -0.64738,-0.16929 -1.07597,-0.1606 -1.38553,0.3835 v 22.21803 c 1.61108,-2.55458 3.57363,-5.74565 7.42251,-12.19147 5.15871,-8.63939 11.29348,-18.67546 13.63266,-22.29843 2.33919,-3.62298 6.03751,-9.76 8.21424,-13.63886 3.25904,-5.8075 5.77046,-8.53752 14.24503,-15.45118 l 10.292536,-8.39362 5.276165,-15.96457 c 8.061735,-24.392548 10.288401,-27.113563 21.302588,-26.028251 4.916645,0.484478 8.312718,0.210063 12.482182,-1.002037 6.107242,-1.775429 6.968129,-3.207054 3.711252,-6.154493 -2.025968,-1.833294 -5.906107,-1.825776 -14.814085,0.03092 -2.603512,0.542658 -3.777159,0.1045 -6.791591,-2.542206 -2.282031,-2.003645 -3.385245,-2.700231 -4.515357,-2.536022 z m 21.376815,60.666604 c -0.162477,0.0465 -0.360651,0.16275 -0.5938,0.34639 -0.696726,0.54876 -2.48424,1.28914 -3.977225,1.64532 -2.172499,0.51828 -3.150699,1.81342 -4.892668,6.47613 -1.197118,3.20433 -2.769919,6.51222 -3.494764,7.34829 -0.724845,0.83606 -2.218581,3.59321 -3.321571,6.12975 -3.335074,7.66963 -7.429238,11.38002 -17.931537,16.25528 -9.527469,4.42276 -9.653804,4.52447 -12.259502,10.29873 -1.634118,3.62123 -2.860458,8.56542 -3.234978,13.03267 -0.80122,9.55692 -2.7613,11.8038 -14.56048,16.69447 -10.44173,4.32806 -17.2112,9.653 -17.67793,13.90481 -0.50794,4.62717 -2.36764,6.0497 -7.19983,5.50505 -1.12846,-0.12722 -1.9832,-0.17269 -2.69066,-0.0804 v 18.87791 c 2.97245,-4.14067 7.87345,-8.14292 18.02432,-14.78933 11.97418,-7.84026 18.76727,-14.28862 21.29021,-20.21395 1.00802,-2.36741 3.11806,-6.97654 4.68855,-10.24308 1.570494,-3.26656 3.148296,-7.5076 3.507138,-9.42039 0.938053,-5.00028 5.486535,-9.04582 12.327543,-10.96675 13.061728,-3.66769 14.7097,-5.27484 16.465592,-16.01405 1.457924,-8.91678 6.542344,-19.95882 12.086311,-26.25711 2.266557,-2.57494 4.119493,-5.69086 4.119493,-6.92767 0,-1.24166 -0.186786,-1.7415 -0.674212,-1.60203 z" />
    <path
       style="fill:#30274f;stroke-width:1.01342"
       d="m -18.083426,76.040966 c -4.247807,-1.108215 -4.537747,-1.397325 -4.230145,-4.217915 0.181623,-1.665472 0.409655,-3.099138 0.506709,-3.185905 0.0971,-0.08674 2.940611,0.521971 6.319006,1.352763 5.484847,1.348791 6.5425432,1.343379 9.8785677,-0.05048 4.79101285,-2.001817 6.52158792,-5.506332 4.78700985,-9.693974 C -1.7761088,57.942715 -3.8964069,56.299262 -9.4602217,53.550118 -18.996374,48.838225 -21.301368,46.348019 -21.832387,40.183785 c -0.790996,-9.181852 5.336229,-14.474323 16.7572435,-14.474323 3.3631019,0 7.2536093,0.432993 8.6455598,0.96221 2.31769,0.88119 2.4355919,1.214494 1.40008,3.957881 -0.9881346,2.617874 -1.4350937,2.879935 -3.5442315,2.078035 -4.0789528,-1.550804 -10.9769627,-1.080232 -13.4435838,0.917116 -2.521096,2.041451 -3.004931,6.389191 -0.982238,8.826385 0.705948,0.850614 4.92981,3.443568 9.3863501,5.762119 7.0658353,3.676049 8.3503634,4.775172 10.0371176,8.588356 2.5311668,5.722129 1.6259205,10.86357 -2.6704994,15.167369 -5.0767876,5.085512 -12.5853415,6.485672 -21.8368373,4.072033 z m 43.256589,-0.05371 c -7.668322,-2.857124 -10.82717,-7.916592 -10.82717,-17.341664 0,-7.136863 1.753045,-11.327587 6.471535,-15.470474 3.242818,-2.847243 4.467295,-3.277784 9.322058,-3.277784 3.090952,0 6.960795,0.709453 8.658434,1.587337 3.768327,1.948676 6.911133,8.456409 6.94172,14.374018 l 0.02217,4.307032 H 33.491012 21.220115 l 0.652753,2.786903 c 0.359004,1.532797 2.060849,4.084859 3.781878,5.671256 2.930008,2.700795 3.588731,2.86202 10.35137,2.533549 6.719759,-0.3264 7.243595,-0.201132 7.529177,1.800399 0.370557,2.597103 -1.235935,3.32057 -8.837207,3.979749 -3.559252,0.308649 -7.091982,-0.04377 -9.525008,-0.950321 z m 12.769369,-24.4356 C 37.667991,47.736952 34.36659,44.96443 30.098787,44.96443 c -3.316323,0 -5.350316,1.572978 -7.562085,5.848107 -1.900972,3.674396 -0.518649,4.391228 7.855856,4.073825 l 7.76879,-0.294449 z M 57.242759,75.96355 c -3.776264,-1.697905 -5.571283,-4.62028 -5.703524,-9.285629 -0.208543,-7.35719 5.12183,-11.782732 15.798549,-13.116696 5.360256,-0.669718 5.791995,-0.910143 5.189993,-2.890161 -1.6479,-5.4201 -7.296275,-7.27924 -14.17262,-4.664858 -3.10631,1.181016 -2.989099,1.23252 -3.892442,-1.710298 -0.562761,-1.833288 -0.110178,-2.374017 2.787483,-3.33033 5.272162,-1.739971 14.479257,-1.551282 17.390761,0.35641 4.483731,2.937852 5.388078,6.268303 5.748225,21.169013 l 0.335778,13.892307 -3.293613,-0.001 c -2.251403,-0.0014 -3.293613,-0.482885 -3.293613,-1.521994 0,-1.913852 -1.001167,-1.92266 -3.699709,-0.03253 -3.216869,2.253177 -9.506077,2.794514 -13.195268,1.135771 z m 13.601364,-7.32218 c 1.581137,-1.739208 2.280193,-3.774002 2.280193,-6.637124 v -4.128955 l -4.623491,0.521132 c -8.503979,0.95852 -12.329577,7.554442 -6.871591,11.847692 3.176715,2.498798 5.919898,2.02168 9.214889,-1.602745 z m 85.169137,7.750806 c -7.46757,-2.251048 -11.94959,-8.927284 -11.94959,-17.799647 0,-11.409471 6.80287,-18.769752 17.42431,-18.852023 8.41842,-0.06518 13.73789,5.513134 14.23491,14.927686 l 0.26349,4.990818 -11.14761,0.267828 c -6.13119,0.147294 -11.70114,0.468684 -12.37767,0.714166 -1.88359,0.683491 0.39212,6.206677 3.61151,8.765165 2.3428,1.861855 3.61058,2.066087 9.93121,1.599876 7.00108,-0.51641 7.26099,-0.453606 7.70357,1.861537 0.41161,2.153225 -0.0453,2.503919 -4.50854,3.461132 -5.70006,1.222437 -9.28361,1.239687 -13.18559,0.06343 z m 12.37248,-23.690432 c 0,-4.037403 -3.69287,-7.737314 -7.7226,-7.737314 -4.13657,0 -8.49211,3.974215 -8.49211,7.748623 0,2.306352 0.26922,2.38557 8.10735,2.38557 7.84897,0 8.10736,-0.07642 8.10736,-2.396879 z m 25.05236,23.466232 c -8.07572,-2.143056 -12.67959,-10.441554 -11.41373,-20.573233 1.29815,-10.390063 7.07629,-15.687206 17.11864,-15.693619 5.35707,-0.003 6.25058,0.318273 9.26966,3.33737 3.35578,3.355758 5.56075,8.952214 5.57127,14.140323 l 0.006,2.786903 h -12.16103 c -11.61442,0 -12.16103,0.09406 -12.16103,2.093461 0,6.165197 5.65846,9.52822 14.79738,8.794634 5.76331,-0.462626 6.36072,-0.322894 6.86506,1.605624 0.68811,2.63127 0.62623,2.688399 -4.10068,3.785435 -4.81839,1.118276 -8.83787,1.037567 -13.79121,-0.276886 z m 12.60687,-24.109611 c -0.5292,-3.89762 -4.06612,-7.093935 -7.84992,-7.093935 -3.67013,0 -8.52751,4.685686 -8.52751,8.226095 0,1.840788 0.62718,1.967991 8.36071,1.695727 8.26947,-0.291137 8.35698,-0.321986 8.01672,-2.827887 z m 22.35362,23.650085 c -4.29031,-2.11461 -6.97387,-5.951333 -8.2993,-11.865547 -1.90649,-8.507273 0.37503,-16.480198 6.09271,-21.291305 4.14115,-3.48456 12.46341,-3.76319 16.54337,-0.553871 l 2.67024,2.10039 V 33.890372 23.682623 h 4.05367 4.05368 V 50.031526 76.38043 h -3.54697 c -3.16946,0 -3.54696,-0.288445 -3.54696,-2.710197 v -2.71021 l -2.2802,2.135984 c -4.66496,4.369937 -10.28275,5.302334 -15.74024,2.612443 z m 14.0447,-7.357424 c 2.72201,-2.722003 2.96232,-3.550382 2.96232,-10.212145 0,-6.725396 -0.22295,-7.47272 -3.08086,-10.330705 -2.57605,-2.576033 -3.61392,-2.978582 -6.33387,-2.45668 -9.14754,1.75521 -11.86467,17.777177 -4.0564,23.919148 3.62893,2.854507 7.03256,2.556663 10.50881,-0.919618 z M 92.550115,58.834533 c -2.880857,-9.650244 -5.237928,-17.858941 -5.237928,-18.241548 0,-0.382607 1.745726,-0.695652 3.879401,-0.695652 h 3.879398 l 3.379937,14.441226 c 1.858957,7.942674 3.528677,13.985187 3.710477,13.427806 0.18178,-0.557381 2.09943,-6.941923 4.26143,-14.187871 l 3.93087,-13.174452 h 3.32821 3.3282 l 3.49617,12.667742 c 1.9229,6.967258 3.72739,13.3518 4.00999,14.187871 0.28262,0.836071 2.12128,-4.978422 4.08597,-12.921096 l 3.57214,-14.441226 h 4.02623 c 3.11186,0 3.8974,0.335727 3.45896,1.478284 -0.312,0.813047 -2.9528,9.021744 -5.86843,18.241549 l -5.30118,16.763264 h -3.67487 -3.67487 l -3.34183,-11.907678 c -1.83799,-6.549222 -3.57389,-12.591735 -3.85754,-13.427806 -0.57098,-1.682995 -0.27096,-2.483099 -5.41523,14.441226 l -3.31139,10.894258 h -3.71309 -3.713085 z"
       id="path2354"
       sodipodi:nodetypes="sssssssssssssssssscssssccccsssssccsssscssssssssssccsssssscssssssscssssssssssssscscsccsssssccssssssssscccccccsscssssssssssscssscccssscssscccssscccs" />
    <path
       style="fill:url(#radialGradient19627);fill-opacity:1;stroke-width:1.01342"
       d="m -75.969113,-64.844727 c -9.759799,-2.838682 -12.419771,-15.328145 -4.816086,-22.612951 8.10707,-7.767059 20.740989,-1.606264 20.740989,10.114118 0,8.688342 -7.848109,14.848009 -15.924903,12.498833 z"
       id="path1933-7-6-8-6"
       sodipodi:nodetypes="ssss" />
    <path
       style="fill:url(#radialGradient21593);fill-opacity:1;stroke-width:1.01342"
       d="m -86.660719,212.12738 c -2.88245,-3.47311 1.093004,-9.34439 4.767441,-7.04101 3.616229,2.26689 2.31541,8.50537 -1.773484,8.50537 -0.978266,0 -2.325544,-0.65894 -2.993957,-1.46436 z"
       id="path1933-7"
       sodipodi:nodetypes="cssc" />
    <path
       style="fill:url(#radialGradient21591);fill-opacity:1;stroke-width:1.01342"
       d="m -75.052697,192.15327 c -5.173443,-2.82966 -6.112407,-8.51751 -2.072918,-12.557 2.823418,-2.82341 6.203679,-3.18236 9.332262,-0.99103 4.829545,3.38277 3.652174,11.69223 -1.932464,13.63904 0,0 -3.40748,0.93944 -5.32688,-0.0909 z"
       id="path1933-7-6"
       sodipodi:nodetypes="cssccc" />
    <path
       style="fill:url(#radialGradient21589);fill-opacity:1;stroke-width:1.01342"
       d="m -123.24459,-1.9528648 c -4.3229,-4.3228923 -0.83806,-13.1744512 5.18671,-13.1744512 4.51503,0 8.39807,4.282102 7.58224,8.361387 -0.3476,1.7379635 -1.38132,3.9879286 -2.29717,4.9999197 -2.25733,2.49432909 -7.89114,2.39379789 -10.47178,-0.1868492 z"
       id="path1933-7-6-8"
       sodipodi:nodetypes="ssssss" />
    <path
       id="path18907"
       style="opacity:1;stroke-width:3.16694"
       d="m -45.140154,214.41827 a 3.4737418,3.4737418 0 0 1 -3.473741,3.47375 3.4737418,3.4737418 0 0 1 -3.473742,-3.47375 3.4737418,3.4737418 0 0 1 3.473742,-3.47374 3.4737418,3.4737418 0 0 1 3.473741,3.47374 z" />
    <path
       style="color:#000000;fill:#b3b3b3;stroke-width:3.16694;-inkscape-stroke:none"
       d="m -123.15443,-148.31736 c -13.95653,0 -25.26744,11.31091 -25.26744,25.26745 v 386.05687 c 0,13.95652 11.31091,25.26742 25.26744,25.26742 h 386.47127 c 13.95653,0 25.26129,-11.31166 25.26129,-25.26742 v -386.05687 c 0,-13.95577 -11.30476,-25.26745 -25.26129,-25.26745 z m 0,4.75041 h 386.47127 c 11.40667,0 20.51088,9.1096 20.51088,20.51704 v 386.05687 c 0,11.40743 -9.10421,20.51702 -20.51088,20.51702 h -386.47127 c -11.40667,0 -20.51704,-9.11035 -20.51704,-20.51702 v -386.05687 c 0,-11.40667 9.11037,-20.51704 20.51704,-20.51704 z"
       id="path28825" />
    <path
       id="path1004"
       style="fill:#59686f"
       d="m 216.21641,209.1283 a 4.4553308,3.9311745 0 0 1 -4.45533,3.93117 4.4553308,3.9311745 0 0 1 -4.45533,-3.93117 4.4553308,3.9311745 0 0 1 4.45533,-3.93118 4.4553308,3.9311745 0 0 1 4.45533,3.93118 z" />
  </g>
</svg>
