<?xml version="1.0" encoding="utf-8" standalone="no"?>
<!DOCTYPE svg PUBLIC "-//W3C//DTD SVG 1.1//EN"
  "http://www.w3.org/Graphics/SVG/1.1/DTD/svg11.dtd">
<svg xmlns:xlink="http://www.w3.org/1999/xlink" width="720pt" height="432pt" viewBox="0 0 720 432" xmlns="http://www.w3.org/2000/svg" version="1.1">
 <metadata>
  <rdf:RDF xmlns:dc="http://purl.org/dc/elements/1.1/" xmlns:cc="http://creativecommons.org/ns#" xmlns:rdf="http://www.w3.org/1999/02/22-rdf-syntax-ns#">
   <cc:Work>
    <dc:type rdf:resource="http://purl.org/dc/dcmitype/StillImage"/>
    <dc:date>2026-10-03T00:54:19.904359</dc:date>
    <dc:format>image/svg+xml</dc:format>
    <dc:creator>
     <cc:Agent>
      <dc:title>Matplotlib v3.11.2, https://matplotlib.org/</dc:title>
     </cc:Agent>
    </dc:creator>
   </cc:Work>
  </rdf:RDF>
 </metadata>
 <defs>
  <style type="text/css">*{stroke-linejoin: round; stroke-linecap: butt}</style>
 </defs>
 <g id="figure_1">
  <g id="patch_1">
   <path d="M 0 432 
L 720 432 
L 720 0 
L 0 0 
z
" style="fill: #ffffff"/>
  </g>
  <g id="axes_1">
   <g id="patch_2">
    <path d="M 62.261538 371.324361 
L 709.2 371.324361 
L 709.2 26.215385 
L 62.261538 26.215385 
z
" style="fill: #ffffff"/>
   </g>
   <g id="matplotlib.axis_1">
    <g id="xtick_1">
     <g id="line2d_1">
      <path d="M 65.800578 371.324361 
L 65.800578 26.215385 
" clip-path="url(#p5bdc3ad882)" style="fill: none; stroke-dasharray: 2.96,1.28; stroke-dashoffset: 0; stroke: #b0b0b0; stroke-opacity: 0.3; stroke-width: 0.8"/>
     </g>
     <g id="line2d_2">
      <defs>
       <path id="m83f125ca3a" d="M 0 0 
L 0 3.5 
" style="stroke: #000000; stroke-width: 0.8"/>
      </defs>
      <g>
       <use xlink:href="#m83f125ca3a" x="65.800578" y="371.324361" style="stroke: #000000; stroke-width: 0.8"/>
      </g>
     </g>
     <g id="text_1">
      <!-- 2014-01 -->
      <g transform="translate(28.414429 405.795531) rotate(-30) scale(0.1 -0.1)">
       <defs>
        <path id="DejaVuSans-15" d="M 1228 531 
L 3431 531 
L 3431 0 
L 469 0 
L 469 531 
Q 828 903 1448 1529 
Q 2069 2156 2228 2338 
Q 2531 2678 2651 2914 
Q 2772 3150 2772 3378 
Q 2772 3750 2511 3984 
Q 2250 4219 1831 4219 
Q 1534 4219 1204 4116 
Q 875 4013 500 3803 
L 500 4441 
Q 881 4594 1212 4672 
Q 1544 4750 1819 4750 
Q 2544 4750 2975 4387 
Q 3406 4025 3406 3419 
Q 3406 3131 3298 2873 
Q 3191 2616 2906 2266 
Q 2828 2175 2409 1742 
Q 1991 1309 1228 531 
z
" transform="scale(0.015625)"/>
        <path id="DejaVuSans-13" d="M 2034 4250 
Q 1547 4250 1301 3770 
Q 1056 3291 1056 2328 
Q 1056 1369 1301 889 
Q 1547 409 2034 409 
Q 2525 409 2770 889 
Q 3016 1369 3016 2328 
Q 3016 3291 2770 3770 
Q 2525 4250 2034 4250 
z
M 2034 4750 
Q 2819 4750 3233 4129 
Q 3647 3509 3647 2328 
Q 3647 1150 3233 529 
Q 2819 -91 2034 -91 
Q 1250 -91 836 529 
Q 422 1150 422 2328 
Q 422 3509 836 4129 
Q 1250 4750 2034 4750 
z
" transform="scale(0.015625)"/>
        <path id="DejaVuSans-14" d="M 794 531 
L 1825 531 
L 1825 4091 
L 703 3866 
L 703 4441 
L 1819 4666 
L 2450 4666 
L 2450 531 
L 3481 531 
L 3481 0 
L 794 0 
L 794 531 
z
" transform="scale(0.015625)"/>
        <path id="DejaVuSans-17" d="M 2419 4116 
L 825 1625 
L 2419 1625 
L 2419 4116 
z
M 2253 4666 
L 3047 4666 
L 3047 1625 
L 3713 1625 
L 3713 1100 
L 3047 1100 
L 3047 0 
L 2419 0 
L 2419 1100 
L 313 1100 
L 313 1709 
L 2253 4666 
z
" transform="scale(0.015625)"/>
        <path id="DejaVuSans-10" d="M 313 2009 
L 1997 2009 
L 1997 1497 
L 313 1497 
L 313 2009 
z
" transform="scale(0.015625)"/>
       </defs>
       <use xlink:href="#DejaVuSans-15"/>
       <use xlink:href="#DejaVuSans-13" transform="translate(63.625 0)"/>
       <use xlink:href="#DejaVuSans-14" transform="translate(127.25 0)"/>
       <use xlink:href="#DejaVuSans-17" transform="translate(190.875 0)"/>
       <use xlink:href="#DejaVuSans-10" transform="translate(254.5 0)"/>
       <use xlink:href="#DejaVuSans-13" transform="translate(290.578125 0)"/>
       <use xlink:href="#DejaVuSans-14" transform="translate(354.203125 0)"/>
      </g>
     </g>
    </g>
    <g id="xtick_2">
     <g id="line2d_3">
      <path d="M 162.025638 371.324361 
L 162.025638 26.215385 
" clip-path="url(#p5bdc3ad882)" style="fill: none; stroke-dasharray: 2.96,1.28; stroke-dashoffset: 0; stroke: #b0b0b0; stroke-opacity: 0.3; stroke-width: 0.8"/>
     </g>
     <g id="line2d_4">
      <g>
       <use xlink:href="#m83f125ca3a" x="162.025638" y="371.324361" style="stroke: #000000; stroke-width: 0.8"/>
      </g>
     </g>
     <g id="text_2">
      <!-- 2016-01 -->
      <g transform="translate(124.639489 405.795531) rotate(-30) scale(0.1 -0.1)">
       <defs>
        <path id="DejaVuSans-19" d="M 2113 2584 
Q 1688 2584 1439 2293 
Q 1191 2003 1191 1497 
Q 1191 994 1439 701 
Q 1688 409 2113 409 
Q 2538 409 2786 701 
Q 3034 994 3034 1497 
Q 3034 2003 2786 2293 
Q 2538 2584 2113 2584 
z
M 3366 4563 
L 3366 3988 
Q 3128 4100 2886 4159 
Q 2644 4219 2406 4219 
Q 1781 4219 1451 3797 
Q 1122 3375 1075 2522 
Q 1259 2794 1537 2939 
Q 1816 3084 2150 3084 
Q 2853 3084 3261 2657 
Q 3669 2231 3669 1497 
Q 3669 778 3244 343 
Q 2819 -91 2113 -91 
Q 1303 -91 875 529 
Q 447 1150 447 2328 
Q 447 3434 972 4092 
Q 1497 4750 2381 4750 
Q 2619 4750 2861 4703 
Q 3103 4656 3366 4563 
z
" transform="scale(0.015625)"/>
       </defs>
       <use xlink:href="#DejaVuSans-15"/>
       <use xlink:href="#DejaVuSans-13" transform="translate(63.625 0)"/>
       <use xlink:href="#DejaVuSans-14" transform="translate(127.25 0)"/>
       <use xlink:href="#DejaVuSans-19" transform="translate(190.875 0)"/>
       <use xlink:href="#DejaVuSans-10" transform="translate(254.5 0)"/>
       <use xlink:href="#DejaVuSans-13" transform="translate(290.578125 0)"/>
       <use xlink:href="#DejaVuSans-14" transform="translate(354.203125 0)"/>
      </g>
     </g>
    </g>
    <g id="xtick_3">
     <g id="line2d_5">
      <path d="M 258.382512 371.324361 
L 258.382512 26.215385 
" clip-path="url(#p5bdc3ad882)" style="fill: none; stroke-dasharray: 2.96,1.28; stroke-dashoffset: 0; stroke: #b0b0b0; stroke-opacity: 0.3; stroke-width: 0.8"/>
     </g>
     <g id="line2d_6">
      <g>
       <use xlink:href="#m83f125ca3a" x="258.382512" y="371.324361" style="stroke: #000000; stroke-width: 0.8"/>
      </g>
     </g>
     <g id="text_3">
      <!-- 2018-01 -->
      <g transform="translate(220.996363 405.795531) rotate(-30) scale(0.1 -0.1)">
       <defs>
        <path id="DejaVuSans-1b" d="M 2034 2216 
Q 1584 2216 1326 1975 
Q 1069 1734 1069 1313 
Q 1069 891 1326 650 
Q 1584 409 2034 409 
Q 2484 409 2743 651 
Q 3003 894 3003 1313 
Q 3003 1734 2745 1975 
Q 2488 2216 2034 2216 
z
M 1403 2484 
Q 997 2584 770 2862 
Q 544 3141 544 3541 
Q 544 4100 942 4425 
Q 1341 4750 2034 4750 
Q 2731 4750 3128 4425 
Q 3525 4100 3525 3541 
Q 3525 3141 3298 2862 
Q 3072 2584 2669 2484 
Q 3125 2378 3379 2068 
Q 3634 1759 3634 1313 
Q 3634 634 3220 271 
Q 2806 -91 2034 -91 
Q 1263 -91 848 271 
Q 434 634 434 1313 
Q 434 1759 690 2068 
Q 947 2378 1403 2484 
z
M 1172 3481 
Q 1172 3119 1398 2916 
Q 1625 2713 2034 2713 
Q 2441 2713 2670 2916 
Q 2900 3119 2900 3481 
Q 2900 3844 2670 4047 
Q 2441 4250 2034 4250 
Q 1625 4250 1398 4047 
Q 1172 3844 1172 3481 
z
" transform="scale(0.015625)"/>
       </defs>
       <use xlink:href="#DejaVuSans-15"/>
       <use xlink:href="#DejaVuSans-13" transform="translate(63.625 0)"/>
       <use xlink:href="#DejaVuSans-14" transform="translate(127.25 0)"/>
       <use xlink:href="#DejaVuSans-1b" transform="translate(190.875 0)"/>
       <use xlink:href="#DejaVuSans-10" transform="translate(254.5 0)"/>
       <use xlink:href="#DejaVuSans-13" transform="translate(290.578125 0)"/>
       <use xlink:href="#DejaVuSans-14" transform="translate(354.203125 0)"/>
      </g>
     </g>
    </g>
    <g id="xtick_4">
     <g id="line2d_7">
      <path d="M 354.607572 371.324361 
L 354.607572 26.215385 
" clip-path="url(#p5bdc3ad882)" style="fill: none; stroke-dasharray: 2.96,1.28; stroke-dashoffset: 0; stroke: #b0b0b0; stroke-opacity: 0.3; stroke-width: 0.8"/>
     </g>
     <g id="line2d_8">
      <g>
       <use xlink:href="#m83f125ca3a" x="354.607572" y="371.324361" style="stroke: #000000; stroke-width: 0.8"/>
      </g>
     </g>
     <g id="text_4">
      <!-- 2020-01 -->
      <g transform="translate(317.221423 405.795531) rotate(-30) scale(0.1 -0.1)">
       <use xlink:href="#DejaVuSans-15"/>
       <use xlink:href="#DejaVuSans-13" transform="translate(63.625 0)"/>
       <use xlink:href="#DejaVuSans-15" transform="translate(127.25 0)"/>
       <use xlink:href="#DejaVuSans-13" transform="translate(190.875 0)"/>
       <use xlink:href="#DejaVuSans-10" transform="translate(254.5 0)"/>
       <use xlink:href="#DejaVuSans-13" transform="translate(290.578125 0)"/>
       <use xlink:href="#DejaVuSans-14" transform="translate(354.203125 0)"/>
      </g>
     </g>
    </g>
    <g id="xtick_5">
     <g id="line2d_9">
      <path d="M 450.964446 371.324361 
L 450.964446 26.215385 
" clip-path="url(#p5bdc3ad882)" style="fill: none; stroke-dasharray: 2.96,1.28; stroke-dashoffset: 0; stroke: #b0b0b0; stroke-opacity: 0.3; stroke-width: 0.8"/>
     </g>
     <g id="line2d_10">
      <g>
       <use xlink:href="#m83f125ca3a" x="450.964446" y="371.324361" style="stroke: #000000; stroke-width: 0.8"/>
      </g>
     </g>
     <g id="text_5">
      <!-- 2022-01 -->
      <g transform="translate(413.578297 405.795531) rotate(-30) scale(0.1 -0.1)">
       <use xlink:href="#DejaVuSans-15"/>
       <use xlink:href="#DejaVuSans-13" transform="translate(63.625 0)"/>
       <use xlink:href="#DejaVuSans-15" transform="translate(127.25 0)"/>
       <use xlink:href="#DejaVuSans-15" transform="translate(190.875 0)"/>
       <use xlink:href="#DejaVuSans-10" transform="translate(254.5 0)"/>
       <use xlink:href="#DejaVuSans-13" transform="translate(290.578125 0)"/>
       <use xlink:href="#DejaVuSans-14" transform="translate(354.203125 0)"/>
      </g>
     </g>
    </g>
    <g id="xtick_6">
     <g id="line2d_11">
      <path d="M 547.189505 371.324361 
L 547.189505 26.215385 
" clip-path="url(#p5bdc3ad882)" style="fill: none; stroke-dasharray: 2.96,1.28; stroke-dashoffset: 0; stroke: #b0b0b0; stroke-opacity: 0.3; stroke-width: 0.8"/>
     </g>
     <g id="line2d_12">
      <g>
       <use xlink:href="#m83f125ca3a" x="547.189505" y="371.324361" style="stroke: #000000; stroke-width: 0.8"/>
      </g>
     </g>
     <g id="text_6">
      <!-- 2024-01 -->
      <g transform="translate(509.803357 405.795531) rotate(-30) scale(0.1 -0.1)">
       <use xlink:href="#DejaVuSans-15"/>
       <use xlink:href="#DejaVuSans-13" transform="translate(63.625 0)"/>
       <use xlink:href="#DejaVuSans-15" transform="translate(127.25 0)"/>
       <use xlink:href="#DejaVuSans-17" transform="translate(190.875 0)"/>
       <use xlink:href="#DejaVuSans-10" transform="translate(254.5 0)"/>
       <use xlink:href="#DejaVuSans-13" transform="translate(290.578125 0)"/>
       <use xlink:href="#DejaVuSans-14" transform="translate(354.203125 0)"/>
      </g>
     </g>
    </g>
    <g id="xtick_7">
     <g id="line2d_13">
      <path d="M 643.54638 371.324361 
L 643.54638 26.215385 
" clip-path="url(#p5bdc3ad882)" style="fill: none; stroke-dasharray: 2.96,1.28; stroke-dashoffset: 0; stroke: #b0b0b0; stroke-opacity: 0.3; stroke-width: 0.8"/>
     </g>
     <g id="line2d_14">
      <g>
       <use xlink:href="#m83f125ca3a" x="643.54638" y="371.324361" style="stroke: #000000; stroke-width: 0.8"/>
      </g>
     </g>
     <g id="text_7">
      <!-- 2026-01 -->
      <g transform="translate(606.160231 405.795531) rotate(-30) scale(0.1 -0.1)">
       <use xlink:href="#DejaVuSans-15"/>
       <use xlink:href="#DejaVuSans-13" transform="translate(63.625 0)"/>
       <use xlink:href="#DejaVuSans-15" transform="translate(127.25 0)"/>
       <use xlink:href="#DejaVuSans-19" transform="translate(190.875 0)"/>
       <use xlink:href="#DejaVuSans-10" transform="translate(254.5 0)"/>
       <use xlink:href="#DejaVuSans-13" transform="translate(290.578125 0)"/>
       <use xlink:href="#DejaVuSans-14" transform="translate(354.203125 0)"/>
      </g>
     </g>
    </g>
    <g id="text_8">
     <!-- Date -->
     <g transform="translate(373.779988 419.473678) scale(0.1 -0.1)">
      <defs>
       <path id="DejaVuSans-27" d="M 1259 4147 
L 1259 519 
L 2022 519 
Q 2988 519 3436 956 
Q 3884 1394 3884 2338 
Q 3884 3275 3436 3711 
Q 2988 4147 2022 4147 
L 1259 4147 
z
M 628 4666 
L 1925 4666 
Q 3281 4666 3915 4102 
Q 4550 3538 4550 2338 
Q 4550 1131 3912 565 
Q 3275 0 1925 0 
L 628 0 
L 628 4666 
z
" transform="scale(0.015625)"/>
       <path id="DejaVuSans-44" d="M 2194 1759 
Q 1497 1759 1228 1600 
Q 959 1441 959 1056 
Q 959 750 1161 570 
Q 1363 391 1709 391 
Q 2188 391 2477 730 
Q 2766 1069 2766 1631 
L 2766 1759 
L 2194 1759 
z
M 3341 1997 
L 3341 0 
L 2766 0 
L 2766 531 
Q 2569 213 2275 61 
Q 1981 -91 1556 -91 
Q 1019 -91 701 211 
Q 384 513 384 1019 
Q 384 1609 779 1909 
Q 1175 2209 1959 2209 
L 2766 2209 
L 2766 2266 
Q 2766 2663 2505 2880 
Q 2244 3097 1772 3097 
Q 1472 3097 1187 3025 
Q 903 2953 641 2809 
L 641 3341 
Q 956 3463 1253 3523 
Q 1550 3584 1831 3584 
Q 2591 3584 2966 3190 
Q 3341 2797 3341 1997 
z
" transform="scale(0.015625)"/>
       <path id="DejaVuSans-57" d="M 1172 4494 
L 1172 3500 
L 2356 3500 
L 2356 3053 
L 1172 3053 
L 1172 1153 
Q 1172 725 1289 603 
Q 1406 481 1766 481 
L 2356 481 
L 2356 0 
L 1766 0 
Q 1100 0 847 248 
Q 594 497 594 1153 
L 594 3053 
L 172 3053 
L 172 3500 
L 594 3500 
L 594 4494 
L 1172 4494 
z
" transform="scale(0.015625)"/>
       <path id="DejaVuSans-48" d="M 3597 1894 
L 3597 1613 
L 953 1613 
Q 991 1019 1311 708 
Q 1631 397 2203 397 
Q 2534 397 2845 478 
Q 3156 559 3463 722 
L 3463 178 
Q 3153 47 2828 -22 
Q 2503 -91 2169 -91 
Q 1331 -91 842 396 
Q 353 884 353 1716 
Q 353 2575 817 3079 
Q 1281 3584 2069 3584 
Q 2775 3584 3186 3129 
Q 3597 2675 3597 1894 
z
M 3022 2063 
Q 3016 2534 2758 2815 
Q 2500 3097 2075 3097 
Q 1594 3097 1305 2825 
Q 1016 2553 972 2059 
L 3022 2063 
z
" transform="scale(0.015625)"/>
      </defs>
      <use xlink:href="#DejaVuSans-27"/>
      <use xlink:href="#DejaVuSans-44" transform="translate(77 0)"/>
      <use xlink:href="#DejaVuSans-57" transform="translate(138.28125 0)"/>
      <use xlink:href="#DejaVuSans-48" transform="translate(177.484375 0)"/>
     </g>
    </g>
   </g>
   <g id="matplotlib.axis_2">
    <g id="ytick_1">
     <g id="line2d_15">
      <path d="M 62.261538 355.646501 
L 709.2 355.646501 
" clip-path="url(#p5bdc3ad882)" style="fill: none; stroke-dasharray: 2.96,1.28; stroke-dashoffset: 0; stroke: #b0b0b0; stroke-opacity: 0.3; stroke-width: 0.8"/>
     </g>
     <g id="line2d_16">
      <defs>
       <path id="md346e03bcf" d="M 0 0 
L -3.5 0 
" style="stroke: #000000; stroke-width: 0.8"/>
      </defs>
      <g>
       <use xlink:href="#md346e03bcf" x="62.261538" y="355.646501" style="stroke: #000000; stroke-width: 0.8"/>
      </g>
     </g>
     <g id="text_9">
      <!-- 0 -->
      <g transform="translate(48.899038 359.445329) scale(0.1 -0.1)">
       <use xlink:href="#DejaVuSans-13"/>
      </g>
     </g>
    </g>
    <g id="ytick_2">
     <g id="line2d_17">
      <path d="M 62.261538 311.091934 
L 709.2 311.091934 
" clip-path="url(#p5bdc3ad882)" style="fill: none; stroke-dasharray: 2.96,1.28; stroke-dashoffset: 0; stroke: #b0b0b0; stroke-opacity: 0.3; stroke-width: 0.8"/>
     </g>
     <g id="line2d_18">
      <g>
       <use xlink:href="#md346e03bcf" x="62.261538" y="311.091934" style="stroke: #000000; stroke-width: 0.8"/>
      </g>
     </g>
     <g id="text_10">
      <!-- 5000 -->
      <g transform="translate(29.811538 314.890763) scale(0.1 -0.1)">
       <defs>
        <path id="DejaVuSans-18" d="M 691 4666 
L 3169 4666 
L 3169 4134 
L 1269 4134 
L 1269 2991 
Q 1406 3038 1543 3061 
Q 1681 3084 1819 3084 
Q 2600 3084 3056 2656 
Q 3513 2228 3513 1497 
Q 3513 744 3044 326 
Q 2575 -91 1722 -91 
Q 1428 -91 1123 -41 
Q 819 9 494 109 
L 494 744 
Q 775 591 1075 516 
Q 1375 441 1709 441 
Q 2250 441 2565 725 
Q 2881 1009 2881 1497 
Q 2881 1984 2565 2268 
Q 2250 2553 1709 2553 
Q 1456 2553 1204 2497 
Q 953 2441 691 2322 
L 691 4666 
z
" transform="scale(0.015625)"/>
       </defs>
       <use xlink:href="#DejaVuSans-18"/>
       <use xlink:href="#DejaVuSans-13" transform="translate(63.625 0)"/>
       <use xlink:href="#DejaVuSans-13" transform="translate(127.25 0)"/>
       <use xlink:href="#DejaVuSans-13" transform="translate(190.875 0)"/>
      </g>
     </g>
    </g>
    <g id="ytick_3">
     <g id="line2d_19">
      <path d="M 62.261538 266.537368 
L 709.2 266.537368 
" clip-path="url(#p5bdc3ad882)" style="fill: none; stroke-dasharray: 2.96,1.28; stroke-dashoffset: 0; stroke: #b0b0b0; stroke-opacity: 0.3; stroke-width: 0.8"/>
     </g>
     <g id="line2d_20">
      <g>
       <use xlink:href="#md346e03bcf" x="62.261538" y="266.537368" style="stroke: #000000; stroke-width: 0.8"/>
      </g>
     </g>
     <g id="text_11">
      <!-- 10000 -->
      <g transform="translate(23.449038 270.336196) scale(0.1 -0.1)">
       <use xlink:href="#DejaVuSans-14"/>
       <use xlink:href="#DejaVuSans-13" transform="translate(63.625 0)"/>
       <use xlink:href="#DejaVuSans-13" transform="translate(127.25 0)"/>
       <use xlink:href="#DejaVuSans-13" transform="translate(190.875 0)"/>
       <use xlink:href="#DejaVuSans-13" transform="translate(254.5 0)"/>
      </g>
     </g>
    </g>
    <g id="ytick_4">
     <g id="line2d_21">
      <path d="M 62.261538 221.982802 
L 709.2 221.982802 
" clip-path="url(#p5bdc3ad882)" style="fill: none; stroke-dasharray: 2.96,1.28; stroke-dashoffset: 0; stroke: #b0b0b0; stroke-opacity: 0.3; stroke-width: 0.8"/>
     </g>
     <g id="line2d_22">
      <g>
       <use xlink:href="#md346e03bcf" x="62.261538" y="221.982802" style="stroke: #000000; stroke-width: 0.8"/>
      </g>
     </g>
     <g id="text_12">
      <!-- 15000 -->
      <g transform="translate(23.449038 225.78163) scale(0.1 -0.1)">
       <use xlink:href="#DejaVuSans-14"/>
       <use xlink:href="#DejaVuSans-18" transform="translate(63.625 0)"/>
       <use xlink:href="#DejaVuSans-13" transform="translate(127.25 0)"/>
       <use xlink:href="#DejaVuSans-13" transform="translate(190.875 0)"/>
       <use xlink:href="#DejaVuSans-13" transform="translate(254.5 0)"/>
      </g>
     </g>
    </g>
    <g id="ytick_5">
     <g id="line2d_23">
      <path d="M 62.261538 177.428236 
L 709.2 177.428236 
" clip-path="url(#p5bdc3ad882)" style="fill: none; stroke-dasharray: 2.96,1.28; stroke-dashoffset: 0; stroke: #b0b0b0; stroke-opacity: 0.3; stroke-width: 0.8"/>
     </g>
     <g id="line2d_24">
      <g>
       <use xlink:href="#md346e03bcf" x="62.261538" y="177.428236" style="stroke: #000000; stroke-width: 0.8"/>
      </g>
     </g>
     <g id="text_13">
      <!-- 20000 -->
      <g transform="translate(23.449038 181.227064) scale(0.1 -0.1)">
       <use xlink:href="#DejaVuSans-15"/>
       <use xlink:href="#DejaVuSans-13" transform="translate(63.625 0)"/>
       <use xlink:href="#DejaVuSans-13" transform="translate(127.25 0)"/>
       <use xlink:href="#DejaVuSans-13" transform="translate(190.875 0)"/>
       <use xlink:href="#DejaVuSans-13" transform="translate(254.5 0)"/>
      </g>
     </g>
    </g>
    <g id="ytick_6">
     <g id="line2d_25">
      <path d="M 62.261538 132.87367 
L 709.2 132.87367 
" clip-path="url(#p5bdc3ad882)" style="fill: none; stroke-dasharray: 2.96,1.28; stroke-dashoffset: 0; stroke: #b0b0b0; stroke-opacity: 0.3; stroke-width: 0.8"/>
     </g>
     <g id="line2d_26">
      <g>
       <use xlink:href="#md346e03bcf" x="62.261538" y="132.87367" style="stroke: #000000; stroke-width: 0.8"/>
      </g>
     </g>
     <g id="text_14">
      <!-- 25000 -->
      <g transform="translate(23.449038 136.672498) scale(0.1 -0.1)">
       <use xlink:href="#DejaVuSans-15"/>
       <use xlink:href="#DejaVuSans-18" transform="translate(63.625 0)"/>
       <use xlink:href="#DejaVuSans-13" transform="translate(127.25 0)"/>
       <use xlink:href="#DejaVuSans-13" transform="translate(190.875 0)"/>
       <use xlink:href="#DejaVuSans-13" transform="translate(254.5 0)"/>
      </g>
     </g>
    </g>
    <g id="ytick_7">
     <g id="line2d_27">
      <path d="M 62.261538 88.319103 
L 709.2 88.319103 
" clip-path="url(#p5bdc3ad882)" style="fill: none; stroke-dasharray: 2.96,1.28; stroke-dashoffset: 0; stroke: #b0b0b0; stroke-opacity: 0.3; stroke-width: 0.8"/>
     </g>
     <g id="line2d_28">
      <g>
       <use xlink:href="#md346e03bcf" x="62.261538" y="88.319103" style="stroke: #000000; stroke-width: 0.8"/>
      </g>
     </g>
     <g id="text_15">
      <!-- 30000 -->
      <g transform="translate(23.449038 92.117931) scale(0.1 -0.1)">
       <defs>
        <path id="DejaVuSans-16" d="M 2597 2516 
Q 3050 2419 3304 2112 
Q 3559 1806 3559 1356 
Q 3559 666 3084 287 
Q 2609 -91 1734 -91 
Q 1441 -91 1130 -33 
Q 819 25 488 141 
L 488 750 
Q 750 597 1062 519 
Q 1375 441 1716 441 
Q 2309 441 2620 675 
Q 2931 909 2931 1356 
Q 2931 1769 2642 2001 
Q 2353 2234 1838 2234 
L 1294 2234 
L 1294 2753 
L 1863 2753 
Q 2328 2753 2575 2939 
Q 2822 3125 2822 3475 
Q 2822 3834 2567 4026 
Q 2313 4219 1838 4219 
Q 1578 4219 1281 4162 
Q 984 4106 628 3988 
L 628 4550 
Q 988 4650 1302 4700 
Q 1616 4750 1894 4750 
Q 2613 4750 3031 4423 
Q 3450 4097 3450 3541 
Q 3450 3153 3228 2886 
Q 3006 2619 2597 2516 
z
" transform="scale(0.015625)"/>
       </defs>
       <use xlink:href="#DejaVuSans-16"/>
       <use xlink:href="#DejaVuSans-13" transform="translate(63.625 0)"/>
       <use xlink:href="#DejaVuSans-13" transform="translate(127.25 0)"/>
       <use xlink:href="#DejaVuSans-13" transform="translate(190.875 0)"/>
       <use xlink:href="#DejaVuSans-13" transform="translate(254.5 0)"/>
      </g>
     </g>
    </g>
    <g id="ytick_8">
     <g id="line2d_29">
      <path d="M 62.261538 43.764537 
L 709.2 43.764537 
" clip-path="url(#p5bdc3ad882)" style="fill: none; stroke-dasharray: 2.96,1.28; stroke-dashoffset: 0; stroke: #b0b0b0; stroke-opacity: 0.3; stroke-width: 0.8"/>
     </g>
     <g id="line2d_30">
      <g>
       <use xlink:href="#md346e03bcf" x="62.261538" y="43.764537" style="stroke: #000000; stroke-width: 0.8"/>
      </g>
     </g>
     <g id="text_16">
      <!-- 35000 -->
      <g transform="translate(23.449038 47.563365) scale(0.1 -0.1)">
       <use xlink:href="#DejaVuSans-16"/>
       <use xlink:href="#DejaVuSans-18" transform="translate(63.625 0)"/>
       <use xlink:href="#DejaVuSans-13" transform="translate(127.25 0)"/>
       <use xlink:href="#DejaVuSans-13" transform="translate(190.875 0)"/>
       <use xlink:href="#DejaVuSans-13" transform="translate(254.5 0)"/>
      </g>
     </g>
    </g>
    <g id="text_17">
     <!-- Stars -->
     <g transform="translate(17.046695 211.628467) rotate(-90) scale(0.1 -0.1)">
      <defs>
       <path id="DejaVuSans-36" d="M 3425 4513 
L 3425 3897 
Q 3066 4069 2747 4153 
Q 2428 4238 2131 4238 
Q 1616 4238 1336 4038 
Q 1056 3838 1056 3469 
Q 1056 3159 1242 3001 
Q 1428 2844 1947 2747 
L 2328 2669 
Q 3034 2534 3370 2195 
Q 3706 1856 3706 1288 
Q 3706 609 3251 259 
Q 2797 -91 1919 -91 
Q 1588 -91 1214 -16 
Q 841 59 441 206 
L 441 856 
Q 825 641 1194 531 
Q 1563 422 1919 422 
Q 2459 422 2753 634 
Q 3047 847 3047 1241 
Q 3047 1584 2836 1778 
Q 2625 1972 2144 2069 
L 1759 2144 
Q 1053 2284 737 2584 
Q 422 2884 422 3419 
Q 422 4038 858 4394 
Q 1294 4750 2059 4750 
Q 2388 4750 2728 4690 
Q 3069 4631 3425 4513 
z
" transform="scale(0.015625)"/>
       <path id="DejaVuSans-55" d="M 2631 2963 
Q 2534 3019 2420 3045 
Q 2306 3072 2169 3072 
Q 1681 3072 1420 2755 
Q 1159 2438 1159 1844 
L 1159 0 
L 581 0 
L 581 3500 
L 1159 3500 
L 1159 2956 
Q 1341 3275 1631 3429 
Q 1922 3584 2338 3584 
Q 2397 3584 2469 3576 
Q 2541 3569 2628 3553 
L 2631 2963 
z
" transform="scale(0.015625)"/>
       <path id="DejaVuSans-56" d="M 2834 3397 
L 2834 2853 
Q 2591 2978 2328 3040 
Q 2066 3103 1784 3103 
Q 1356 3103 1142 2972 
Q 928 2841 928 2578 
Q 928 2378 1081 2264 
Q 1234 2150 1697 2047 
L 1894 2003 
Q 2506 1872 2764 1633 
Q 3022 1394 3022 966 
Q 3022 478 2636 193 
Q 2250 -91 1575 -91 
Q 1294 -91 989 -36 
Q 684 19 347 128 
L 347 722 
Q 666 556 975 473 
Q 1284 391 1588 391 
Q 1994 391 2212 530 
Q 2431 669 2431 922 
Q 2431 1156 2273 1281 
Q 2116 1406 1581 1522 
L 1381 1569 
Q 847 1681 609 1914 
Q 372 2147 372 2553 
Q 372 3047 722 3315 
Q 1072 3584 1716 3584 
Q 2034 3584 2315 3537 
Q 2597 3491 2834 3397 
z
" transform="scale(0.015625)"/>
      </defs>
      <use xlink:href="#DejaVuSans-36"/>
      <use xlink:href="#DejaVuSans-57" transform="translate(63.484375 0)"/>
      <use xlink:href="#DejaVuSans-44" transform="translate(102.6875 0)"/>
      <use xlink:href="#DejaVuSans-55" transform="translate(163.96875 0)"/>
      <use xlink:href="#DejaVuSans-56" transform="translate(205.078125 0)"/>
     </g>
    </g>
   </g>
   <g id="line2d_31">
    <path d="M 91.667832 355.63759 
L 92.505661 355.521748 
L 97.01641 355.298975 
L 97.438164 355.245509 
L 102.991136 355.049469 
L 103.006474 355.040558 
L 104.830466 354.871251 
L 112.236152 354.149467 
L 114.008834 353.989071 
L 114.166779 353.88214 
L 115.301893 353.39204 
L 116.549229 353.240554 
L 116.796711 351.993026 
L 117.053038 351.716788 
L 118.775337 351.511837 
L 119.064894 351.369262 
L 119.122282 351.342529 
L 122.891532 350.941538 
L 123.00906 350.905895 
L 123.278558 350.843518 
L 124.956377 350.700944 
L 125.172399 350.638567 
L 125.96102 350.585102 
L 129.582387 350.237576 
L 130.197698 350.1752 
L 131.248318 349.970249 
L 132.268963 349.747476 
L 132.557551 349.6851 
L 133.443599 349.551436 
L 133.478519 349.533614 
L 136.105198 349.275198 
L 137.185956 349.025692 
L 137.29117 348.900939 
L 137.815138 348.81183 
L 139.540683 348.642523 
L 140.260376 348.499948 
L 142.663341 348.277175 
L 143.018552 348.12569 
L 143.164527 344.997959 
L 143.224513 344.561325 
L 143.354816 343.919739 
L 143.550763 343.73261 
L 144.544613 343.224688 
L 144.775599 343.091024 
L 144.901109 342.948449 
L 145.995867 342.600924 
L 147.029435 342.413794 
L 147.277063 342.360329 
L 148.655929 342.191022 
L 153.507303 341.487059 
L 154.070577 341.014781 
L 157.065626 340.346463 
L 157.691497 340.186066 
L 160.000676 339.776164 
L 160.113377 339.749431 
L 161.404935 339.526659 
L 161.652799 339.464282 
L 162.36279 339.384084 
L 163.165205 339.232598 
L 163.293458 339.205866 
L 163.504581 339.170222 
L 165.151947 338.885073 
L 166.946145 338.671211 
L 167.11095 338.653389 
L 168.069016 338.501904 
L 168.178122 338.475171 
L 169.244754 338.279131 
L 171.170684 337.887051 
L 172.065656 337.753387 
L 176.304904 336.915761 
L 176.405557 336.773186 
L 177.15944 336.479126 
L 180.111386 335.997937 
L 180.131304 335.971204 
L 181.411315 335.775164 
L 181.478621 335.757342 
L 182.341021 335.596946 
L 183.462145 335.320707 
L 183.93877 335.169222 
L 184.717428 335.035558 
L 186.496588 334.866251 
L 187.112369 334.723676 
L 187.650396 334.590013 
L 187.760492 334.545458 
L 188.300916 334.509814 
L 189.624927 334.295952 
L 192.301501 333.88605 
L 192.414534 333.859318 
L 192.50213 333.823674 
L 193.489034 333.672189 
L 193.584291 333.645456 
L 194.147183 333.502881 
L 194.362013 333.360307 
L 194.362498 333.351396 
L 195.571255 333.217732 
L 196.222439 333.066246 
L 196.86202 332.932583 
L 197.60262 332.825652 
L 199.812763 332.41575 
L 199.920125 332.353373 
L 200.567834 332.210799 
L 201.757979 331.872184 
L 202.440498 331.73852 
L 202.576015 331.702877 
L 203.502835 331.569213 
L 203.594114 331.551391 
L 204.904445 331.310797 
L 205.563101 331.141489 
L 210.759445 330.054358 
L 210.896713 326.890984 
L 211.30976 325.78603 
L 211.616988 325.616723 
L 211.839822 325.349396 
L 212.095541 325.19791 
L 212.331492 324.921672 
L 213.001488 324.698899 
L 216.409633 323.941471 
L 216.699813 323.896917 
L 218.136729 323.549391 
L 219.406746 323.219687 
L 219.952342 323.086024 
L 220.245132 322.970182 
L 220.514264 322.943449 
L 220.902383 322.818696 
L 222.172515 322.355329 
L 222.375092 322.284041 
L 223.469739 321.989981 
L 223.680361 321.936516 
L 225.47863 321.624634 
L 225.578481 321.419683 
L 226.046122 321.286019 
L 226.802924 321.143445 
L 226.817844 321.125623 
L 227.574459 320.974137 
L 227.792192 320.876117 
L 228.875136 320.688988 
L 229.187501 320.590968 
L 230.970923 320.305819 
L 231.233234 320.243442 
L 233.132544 319.93156 
L 233.245448 319.913738 
L 234.009899 319.780075 
L 234.974892 319.566213 
L 236.015016 319.432549 
L 236.58913 319.370173 
L 237.895792 319.1474 
L 238.363201 318.987004 
L 238.398895 318.960271 
L 241.263663 318.586012 
L 241.267365 318.577102 
L 242.847067 318.389972 
L 244.185302 317.988981 
L 244.296451 317.926605 
L 244.355063 317.88205 
L 244.758628 317.748387 
L 244.876152 317.712743 
L 247.608731 317.258286 
L 248.601222 317.09789 
L 249.436424 316.937493 
L 252.243771 316.518681 
L 252.336908 316.456304 
L 253.016201 316.304819 
L 253.165516 316.269175 
L 253.515583 316.233531 
L 254.053176 316.082046 
L 254.181174 316.046402 
L 255.126824 315.886006 
L 256.309508 315.707787 
L 256.364096 315.689966 
L 256.866784 315.547391 
L 256.941226 315.520658 
L 259.957468 314.986003 
L 260.044648 314.959271 
L 260.682153 314.825607 
L 260.880051 314.75432 
L 261.333908 314.629567 
L 261.950979 314.486992 
L 265.548063 313.863228 
L 266.714575 313.729565 
L 267.033907 313.622634 
L 274.81021 312.1256 
L 275.442175 311.991937 
L 275.608838 311.938471 
L 276.629822 311.724609 
L 277.265548 311.582035 
L 277.40156 311.53748 
L 279.333204 311.118667 
L 280.446618 310.958271 
L 281.467543 310.806785 
L 281.645177 310.735498 
L 282.653544 310.521636 
L 282.753829 310.477081 
L 284.819122 310.093912 
L 284.893671 310.07609 
L 285.156076 309.951337 
L 285.864456 309.764208 
L 287.340421 309.514703 
L 287.411873 309.496881 
L 288.937189 309.069157 
L 289.119938 308.962226 
L 292.054022 308.293908 
L 292.534769 308.142422 
L 294.170453 307.545391 
L 294.362693 305.522614 
L 294.385247 305.282019 
L 294.624065 303.321618 
L 294.735466 303.161222 
L 294.992641 302.724587 
L 295.167846 302.573101 
L 295.358109 302.332507 
L 295.448804 302.109734 
L 295.606453 301.788941 
L 295.729862 301.619634 
L 296.0892 301.343395 
L 296.347475 301.200821 
L 296.525505 301.040424 
L 297.208794 300.764186 
L 298.675158 300.193887 
L 298.910062 300.167155 
L 299.403649 300.015669 
L 299.68536 299.882006 
L 300.196618 299.757253 
L 300.373597 299.668144 
L 301.965298 299.347351 
L 302.10394 299.284974 
L 302.875556 299.097845 
L 302.979704 299.053291 
L 303.353515 298.910716 
L 303.671558 298.420616 
L 305.075463 297.850317 
L 305.182393 297.787941 
L 305.707611 297.654277 
L 306.68227 297.235464 
L 307.580399 296.985959 
L 307.734896 296.843384 
L 310.155762 295.898827 
L 310.271943 295.774075 
L 312.371349 295.33744 
L 312.684947 295.230509 
L 313.235077 295.087934 
L 313.271102 295.061201 
L 314.057486 294.882983 
L 314.202937 294.784963 
L 315.173764 294.401794 
L 316.015341 294.161199 
L 316.156775 294.107734 
L 317.927339 293.510703 
L 318.203796 293.439415 
L 318.640783 293.261197 
L 319.120558 293.056246 
L 319.557815 292.922582 
L 319.709257 292.824562 
L 321.538771 292.067135 
L 322.10249 291.764164 
L 322.79516 291.603767 
L 323.399743 291.33644 
L 324.261831 291.024558 
L 324.367521 290.95327 
L 330.626557 288.930493 
L 330.829582 288.80574 
L 331.314857 288.627522 
L 332.402365 288.31564 
L 332.668316 288.190887 
L 332.927241 288.155244 
L 333.504718 287.994847 
L 333.65199 287.82554 
L 333.917425 287.709698 
L 334.102338 287.567123 
L 334.271016 287.415638 
L 335.537584 286.916627 
L 335.636073 286.872072 
L 336.512876 286.622567 
L 337.014059 286.390883 
L 337.670237 286.150288 
L 338.054777 286.007714 
L 338.57722 285.87405 
L 339.381239 285.713653 
L 340.038127 285.517613 
L 340.541293 285.38395 
L 340.64853 285.259197 
L 341.987179 284.849295 
L 342.12599 284.813651 
L 342.658507 284.662166 
L 343.004612 284.6087 
L 343.643094 284.475037 
L 343.844634 284.385927 
L 344.202941 284.252264 
L 344.297819 284.074045 
L 345.296747 283.708698 
L 345.461672 283.619589 
L 346.26837 283.396816 
L 346.388783 283.352261 
L 347.323811 283.156221 
L 347.419138 283.129489 
L 348.057265 282.95127 
L 348.240193 282.879983 
L 349.884574 282.487903 
L 350.070526 282.407705 
L 350.69187 282.247308 
L 350.805727 282.202754 
L 351.173848 282.024535 
L 354.239144 280.768097 
L 354.865623 280.6077 
L 355.084823 280.456215 
L 355.808517 280.286907 
L 355.853124 280.233442 
L 356.455676 280.064134 
L 356.811042 279.841362 
L 358.377695 279.574034 
L 358.986254 279.422549 
L 361.081831 278.977003 
L 361.540557 278.861161 
L 362.401086 278.674032 
L 363.53959 278.371061 
L 364.157785 278.139377 
L 364.249659 278.103734 
L 364.930948 277.961159 
L 365.145308 277.827495 
L 367.819474 276.972048 
L 367.932466 276.918582 
L 368.372243 276.749275 
L 369.140145 276.375016 
L 369.507558 276.223531 
L 370.193845 275.974025 
L 370.263312 275.938382 
L 371.379836 275.688876 
L 371.44871 275.662143 
L 372.183524 275.510658 
L 372.810096 275.359172 
L 373.733385 275.056201 
L 373.871713 274.940359 
L 375.627514 274.316595 
L 376.234228 274.138377 
L 376.405588 274.076001 
L 377.407177 273.764119 
L 377.455238 273.746297 
L 377.993001 273.603722 
L 378.287042 273.425504 
L 378.919214 273.042335 
L 379.563903 272.855206 
L 383.926813 271.14431 
L 384.0789 271.081934 
L 384.736498 270.885894 
L 384.857286 270.841339 
L 385.734694 270.591834 
L 387.177365 269.985892 
L 387.281287 269.932426 
L 388.20823 269.67401 
L 388.217922 269.665099 
L 388.798 269.531435 
L 388.926209 269.48688 
L 389.51065 269.335395 
L 391.004857 268.872027 
L 391.632139 268.667076 
L 391.719245 268.631433 
L 391.844946 268.515591 
L 392.049697 266.002713 
L 392.246278 265.450237 
L 392.357534 265.272018 
L 392.650048 265.084889 
L 395.690247 263.712609 
L 396.310486 263.552212 
L 396.668933 263.480925 
L 397.113644 263.33835 
L 397.220445 263.267063 
L 397.861676 263.071023 
L 398.128514 262.928448 
L 400.187772 262.26013 
L 400.537096 262.135377 
L 400.676727 262.06409 
L 402.163406 261.556168 
L 402.271359 261.493791 
L 402.492076 261.360128 
L 402.60018 261.324484 
L 403.267204 261.101711 
L 403.393367 261.039335 
L 404.184476 260.754185 
L 404.254848 260.718542 
L 404.499496 260.584878 
L 404.669092 260.451214 
L 409.855133 258.74923 
L 410.075663 258.633388 
L 411.196043 258.080912 
L 411.996208 257.86705 
L 412.288372 257.760119 
L 412.846854 257.590811 
L 412.993809 257.492791 
L 418.041826 255.496747 
L 418.50353 255.122488 
L 419.702494 254.730408 
L 419.899345 254.65021 
L 420.3911 254.507635 
L 420.446471 254.445259 
L 421.045821 254.275952 
L 421.386303 254.151199 
L 421.91764 253.972981 
L 422.028599 253.803673 
L 422.24412 253.643277 
L 422.407624 253.563079 
L 422.834815 253.429415 
L 423.699784 253.162087 
L 424.238998 252.974958 
L 424.640874 252.752185 
L 425.799199 252.360105 
L 425.950242 252.270996 
L 426.539199 252.128421 
L 427.129339 251.91456 
L 428.740587 251.326439 
L 428.820631 251.281885 
L 429.382298 251.068023 
L 432.086817 249.97198 
L 432.293094 249.116533 
L 432.959099 248.564056 
L 433.093583 248.439303 
L 433.529236 248.252174 
L 434.009828 248.091778 
L 434.697169 247.842272 
L 434.781004 247.815539 
L 435.177522 247.637321 
L 435.397983 247.548212 
L 435.950728 247.298706 
L 436.206973 247.173954 
L 436.56688 247.013557 
L 437.128901 246.790784 
L 437.947041 246.621477 
L 440.446033 245.739297 
L 440.54803 245.694742 
L 441.627929 245.320484 
L 442.067148 245.106622 
L 442.566739 244.919493 
L 442.637181 244.89276 
L 443.0978 244.714542 
L 443.547757 244.473947 
L 444.051056 244.313551 
L 444.892686 244.028401 
L 445.520247 243.787807 
L 445.917915 243.609588 
L 449.604877 241.5779 
L 449.735001 241.28384 
L 449.831045 241.105622 
L 449.946081 240.998691 
L 450.165059 240.89176 
L 451.540669 240.259085 
L 451.639759 240.080867 
L 452.09062 239.82245 
L 452.90933 239.385816 
L 453.276803 239.225419 
L 453.379539 239.163043 
L 453.70544 238.967003 
L 454.012731 238.833339 
L 454.170789 238.762052 
L 454.453743 238.601655 
L 456.055097 238.013535 
L 456.172031 237.879871 
L 456.345993 237.737297 
L 456.881717 237.532346 
L 457.13648 237.354127 
L 457.45328 237.220464 
L 457.783558 237.068978 
L 458.126895 236.819473 
L 458.24162 236.783829 
L 461.19918 235.62541 
L 461.322847 235.554123 
L 463.413322 234.769962 
L 464.035323 234.600655 
L 464.449636 234.324417 
L 464.708888 233.976891 
L 464.982025 233.807584 
L 465.266028 233.665009 
L 465.504164 233.513524 
L 469.633786 231.668965 
L 470.011554 231.52639 
L 470.127218 231.446192 
L 471.626262 230.893715 
L 471.750986 230.813517 
L 473.058864 230.26104 
L 473.429441 230.118466 
L 473.706544 230.002624 
L 474.558317 229.744207 
L 476.487618 228.870938 
L 476.592427 228.835294 
L 477.396993 228.567967 
L 478.326363 228.175887 
L 478.557401 228.033312 
L 479.034989 227.667965 
L 479.348938 227.42737 
L 479.462387 227.373904 
L 479.659303 227.293706 
L 480.001883 227.151132 
L 480.713388 226.669942 
L 480.994136 226.527368 
L 481.385531 226.268951 
L 481.669575 226.153109 
L 482.131758 225.859049 
L 482.191554 225.805584 
L 482.711843 225.627365 
L 482.911561 225.511524 
L 483.22179 225.324394 
L 483.3535 225.288751 
L 483.594334 225.137265 
L 483.710507 225.074889 
L 484.654404 224.522412 
L 484.926252 224.397659 
L 485.422066 223.880826 
L 486.010381 223.372904 
L 486.603464 223.105577 
L 486.946333 222.945181 
L 487.262318 222.802606 
L 487.386296 222.606566 
L 488.334831 222.143198 
L 488.478681 222.054089 
L 488.713571 221.911515 
L 489.134116 221.537256 
L 489.2569 221.430325 
L 489.921308 221.047156 
L 490.278548 220.895671 
L 490.514447 220.770918 
L 491.177658 220.467947 
L 491.674004 220.147154 
L 492.240784 219.879826 
L 492.702688 219.746163 
L 492.986236 219.603588 
L 493.490017 219.354083 
L 493.566552 219.282795 
L 493.788094 219.140221 
L 493.878504 219.060022 
L 494.534389 218.872893 
L 494.634227 218.846161 
L 495.00465 218.685764 
L 495.08255 218.64121 
L 495.465674 218.471902 
L 495.582652 217.759029 
L 495.993931 217.286751 
L 496.342377 217.0818 
L 496.447743 217.037245 
L 496.859813 216.769918 
L 496.983358 216.68972 
L 497.453884 216.50259 
L 498.684428 215.985757 
L 499.281333 215.691697 
L 499.49279 215.558034 
L 499.759783 215.460013 
L 501.745007 214.720408 
L 502.363152 214.577833 
L 503.068429 214.292684 
L 503.221998 214.221397 
L 503.946861 214.034267 
L 504.159159 213.882782 
L 504.270406 213.481791 
L 504.567255 213.294662 
L 504.799099 213.125354 
L 504.910643 213.036245 
L 505.17955 212.938225 
L 505.630465 212.733274 
L 507.170077 211.860005 
L 507.586847 211.699608 
L 507.708917 211.637232 
L 507.974938 211.441192 
L 508.208965 211.262973 
L 508.703081 211.040201 
L 509.578779 210.621388 
L 509.704493 210.514457 
L 510.377266 210.220396 
L 510.630258 210.077822 
L 511.281634 209.543167 
L 511.446845 209.37386 
L 511.75067 209.17782 
L 511.869596 209.142176 
L 512.58349 208.848116 
L 512.704052 208.759007 
L 513.331646 208.375837 
L 513.770555 208.153065 
L 514.168189 208.001579 
L 514.552706 207.81445 
L 514.689954 207.778806 
L 515.358245 207.547123 
L 515.569462 207.368904 
L 516.165945 206.93227 
L 516.669363 206.798606 
L 516.773527 206.762962 
L 517.255246 206.611477 
L 519.733481 205.408503 
L 519.947543 205.27484 
L 520.068558 204.847116 
L 520.4544 204.561967 
L 521.058324 204.125332 
L 521.283299 203.991668 
L 521.437901 203.733252 
L 521.687631 203.51939 
L 521.84584 203.448102 
L 522.156586 203.305528 
L 522.447335 203.145131 
L 523.018481 202.779784 
L 523.394668 202.619388 
L 523.499835 202.557011 
L 523.766124 202.441169 
L 524.419476 202.164931 
L 524.478301 202.093644 
L 524.815713 201.95998 
L 525.355032 201.657009 
L 525.7202 201.46988 
L 526.216266 201.238196 
L 526.308526 201.166909 
L 526.901406 200.997601 
L 527.012467 200.917403 
L 527.314901 200.739185 
L 527.504667 200.587699 
L 527.876063 200.445125 
L 527.990348 200.382748 
L 529.722122 199.500568 
L 530.12716 199.349082 
L 530.599065 199.170864 
L 530.927721 199.001557 
L 531.14809 198.832249 
L 531.286969 198.778784 
L 532.002136 198.484724 
L 533.81637 197.709474 
L 533.920433 197.647098 
L 534.381494 197.495612 
L 534.578392 197.361949 
L 535.168017 197.17482 
L 536.303472 196.720363 
L 536.416679 196.613432 
L 536.753941 196.417392 
L 537.221847 196.265906 
L 537.518039 196.087688 
L 537.779136 195.936203 
L 538.963262 195.463924 
L 539.057701 195.41937 
L 539.462994 195.258973 
L 539.999766 195.018379 
L 540.117008 194.964913 
L 540.732717 194.733229 
L 540.837275 194.661942 
L 541.157241 194.492635 
L 544.069854 192.942136 
L 544.210996 192.853027 
L 544.554333 192.701541 
L 544.887824 192.550056 
L 546.617232 191.926292 
L 546.72373 191.855004 
L 547.614232 191.471835 
L 548.027412 191.293617 
L 548.27915 191.151042 
L 548.4286 191.0352 
L 548.690395 190.83916 
L 549.679294 190.25104 
L 549.785677 189.948069 
L 550.604355 189.440147 
L 550.912939 189.306483 
L 551.023711 189.261929 
L 551.48921 188.816383 
L 551.591482 185.18073 
L 551.709447 183.532211 
L 551.744459 183.095577 
L 551.935414 180.351015 
L 551.984791 180.163886 
L 552.414991 179.557944 
L 553.074407 178.969824 
L 553.819905 178.043089 
L 554.125227 177.85596 
L 554.29974 177.677741 
L 555.01479 177.071799 
L 555.204729 176.920314 
L 555.535804 176.724274 
L 555.65241 176.644075 
L 559.985136 173.95298 
L 560.352388 173.819316 
L 560.455562 173.76585 
L 561.341397 173.338127 
L 562.442636 172.625254 
L 562.78523 172.473768 
L 562.895993 172.447035 
L 563.209947 172.286639 
L 563.36371 172.152975 
L 563.840233 172.00149 
L 564.108082 171.734162 
L 564.314805 171.609409 
L 564.587714 171.449013 
L 564.729649 171.333171 
L 568.2543 169.105443 
L 568.525841 168.971779 
L 568.9202 168.793561 
L 569.656427 168.481679 
L 570.435252 168.036133 
L 570.535355 167.938113 
L 572.561014 166.806427 
L 572.722606 166.654942 
L 573.260098 166.432169 
L 573.415347 166.351971 
L 573.705205 166.182663 
L 574.108414 165.585632 
L 574.678336 165.17573 
L 574.807355 165.104443 
L 575.31448 164.730184 
L 575.47952 164.569788 
L 575.976184 164.382659 
L 581.150852 161.335126 
L 581.30671 161.27275 
L 581.49614 161.130175 
L 581.615062 161.041066 
L 581.740989 160.943046 
L 582.066409 160.764828 
L 582.23413 160.648986 
L 582.567764 160.479679 
L 582.709619 160.354926 
L 582.995553 160.221262 
L 583.114222 160.10542 
L 583.240764 160.043044 
L 584.204208 159.579677 
L 584.321617 159.472746 
L 587.465252 157.485612 
L 587.596768 157.343037 
L 588.130856 156.897492 
L 588.329456 156.746006 
L 589.623971 155.863826 
L 589.779406 155.231151 
L 589.910243 155.12422 
L 590.079008 154.981645 
L 590.308314 154.821249 
L 590.643251 154.562832 
L 590.754565 154.322238 
L 591.267672 153.947979 
L 591.399666 153.894514 
L 592.4439 153.244017 
L 592.709556 153.092532 
L 592.815146 153.012333 
L 593.282264 152.700452 
L 593.688821 152.370748 
L 594.41736 152.014311 
L 594.651386 151.862826 
L 594.850696 151.720251 
L 594.999667 151.595498 
L 595.346465 151.444013 
L 595.484297 151.372725 
L 595.780361 151.230151 
L 595.890933 151.141042 
L 596.112639 151.051933 
L 596.540821 150.784605 
L 598.214012 149.964801 
L 598.713314 149.688563 
L 599.72599 149.287572 
L 599.862978 149.207374 
L 600.029706 149.118264 
L 602.013085 148.066777 
L 602.157573 147.950935 
L 602.373643 147.790538 
L 602.898486 147.541033 
L 603.458006 147.291527 
L 603.629128 147.140042 
L 603.921655 146.979645 
L 604.062343 146.837071 
L 604.310505 146.685585 
L 604.408198 146.596476 
L 604.828958 146.409347 
L 607.893456 144.97469 
L 608.007757 144.921224 
L 608.525368 144.689541 
L 609.239551 144.243995 
L 609.536097 144.047955 
L 609.659189 143.932113 
L 610.102825 143.718251 
L 610.195934 143.646964 
L 610.556882 143.5133 
L 610.745735 143.442013 
L 611.132118 143.254883 
L 612.315285 142.72914 
L 612.990954 142.399436 
L 613.154797 142.34597 
L 614.610463 141.588543 
L 614.768718 141.26775 
L 614.916209 141.125175 
L 615.141507 140.902402 
L 615.46512 139.913291 
L 615.665123 139.761805 
L 615.826705 139.521211 
L 615.876737 139.378636 
L 616.40714 138.843981 
L 616.66943 138.612298 
L 616.900568 138.282594 
L 617.386975 137.935068 
L 617.667957 137.739028 
L 617.871781 137.596454 
L 618.239931 137.329126 
L 618.462409 137.159819 
L 618.633285 136.990511 
L 619.746761 136.010311 
L 619.936186 135.680607 
L 620.375243 135.368725 
L 620.463471 135.261794 
L 620.617598 135.092487 
L 620.748024 135.0212 
L 621.178766 134.655852 
L 621.272717 134.495456 
L 621.503019 134.308327 
L 621.596649 134.24595 
L 621.939184 134.076643 
L 622.075071 134.005356 
L 622.52668 133.648919 
L 622.637344 133.586543 
L 622.747989 133.550899 
L 623.01746 133.381592 
L 623.431049 132.953868 
L 623.74873 132.77565 
L 623.841831 132.713273 
L 624.009765 132.570699 
L 624.108381 132.445946 
L 624.375833 132.276638 
L 624.48781 132.205351 
L 624.874772 131.946935 
L 625.010863 131.759805 
L 625.613275 131.421191 
L 625.786441 131.278616 
L 626.042488 131.064754 
L 628.062933 129.594453 
L 628.178084 129.496433 
L 628.332448 129.425146 
L 629.649016 128.703362 
L 629.818082 128.525144 
L 631.235705 127.678607 
L 631.343144 127.616231 
L 631.611696 127.446923 
L 631.897018 127.295438 
L 632.212674 127.170685 
L 632.413312 127.072665 
L 632.626888 126.92118 
L 632.754597 126.805338 
L 634.171513 125.718206 
L 634.418304 124.68454 
L 634.55662 123.775627 
L 634.831398 121.975623 
L 634.896946 121.85087 
L 635.104009 121.120175 
L 635.190427 120.968689 
L 635.399658 118.954823 
L 635.560896 117.867692 
L 636.102493 116.468678 
L 636.212396 116.219173 
L 636.312685 115.880558 
L 636.474502 115.470656 
L 638.884557 113.225106 
L 639.282387 112.307282 
L 639.825809 111.683518 
L 640.272537 105.499344 
L 640.30316 105.276571 
L 640.437395 104.474589 
L 640.557139 103.948845 
L 641.113379 102.442901 
L 641.490692 101.819137 
L 641.600834 101.65874 
L 642.447362 100.241905 
L 642.68706 99.618141 
L 642.821348 99.395369 
L 642.96227 99.190418 
L 643.120101 99.02111 
L 643.200658 98.851803 
L 643.321055 98.557743 
L 643.945992 97.729028 
L 644.073497 97.55972 
L 644.181477 97.36368 
L 644.28525 97.185462 
L 644.477544 96.87358 
L 646.357515 94.093375 
L 646.463114 93.950801 
L 646.608624 93.781493 
L 647.042812 93.202284 
L 647.253931 92.943867 
L 648.121316 91.865647 
L 648.265443 91.642874 
L 648.362834 91.50921 
L 648.684289 91.197328 
L 648.867083 91.036932 
L 649.025791 90.831981 
L 649.297815 89.860691 
L 649.4336 89.236927 
L 649.484567 89.094353 
L 649.863127 88.167618 
L 650.506679 87.01811 
L 650.745027 86.536921 
L 650.856018 86.323059 
L 651.316065 85.387413 
L 651.450247 85.253749 
L 651.814989 84.549787 
L 651.956829 84.318103 
L 652.186219 84.050776 
L 652.444398 83.819092 
L 652.599481 83.498299 
L 652.726213 83.346814 
L 653.344778 82.580475 
L 653.489448 82.411168 
L 653.602398 82.224039 
L 653.825303 81.760671 
L 654.178279 81.395324 
L 654.77082 80.352747 
L 654.84279 80.210172 
L 654.965246 80.023043 
L 655.110142 79.853736 
L 655.319629 79.550765 
L 655.453258 79.345814 
L 655.750971 78.935912 
L 655.988896 78.757693 
L 656.111713 78.62403 
L 656.52444 78.062642 
L 656.635487 77.893335 
L 658.703969 75.024021 
L 658.808496 74.845803 
L 658.922089 74.435901 
L 659.019198 73.84778 
L 659.15991 73.25966 
L 659.243666 73.06362 
L 659.602538 72.315103 
L 659.716781 72.19035 
L 660.105287 71.557676 
L 660.481945 71.040843 
L 660.716612 70.782426 
L 661.045744 70.149751 
L 661.164006 70.007177 
L 661.274865 69.811137 
L 661.442908 69.65074 
L 661.676707 69.267571 
L 661.787375 69.098263 
L 662.398499 68.242816 
L 662.695626 67.89529 
L 662.856859 67.619052 
L 662.992604 67.40519 
L 663.133245 67.066575 
L 663.888829 65.934889 
L 663.994919 65.774493 
L 664.312984 65.373502 
L 664.466975 65.132907 
L 664.652851 64.954689 
L 664.795095 64.607163 
L 665.871927 62.949733 
L 665.990303 62.771515 
L 666.191649 62.602208 
L 666.764287 61.684384 
L 667.00758 61.408145 
L 667.203379 61.229927 
L 669.118135 58.512099 
L 669.204062 58.316058 
L 669.324087 58.209128 
L 671.168896 55.482388 
L 671.369321 55.117041 
L 672.923319 53.227927 
L 673.02293 53.094263 
L 673.140428 52.969511 
L 673.471411 52.657629 
L 673.727079 52.417034 
L 673.937896 52.007132 
L 674.070373 51.784359 
L 674.222876 51.525943 
L 674.41489 51.312081 
L 674.903317 50.545742 
L 675.194697 50.171484 
L 676.143986 48.906134 
L 676.312458 48.763559 
L 676.462913 48.57643 
L 676.575871 48.424945 
L 676.682033 48.211083 
L 676.792266 48.032865 
L 676.966204 47.836825 
L 677.476806 46.990288 
L 677.633139 46.277415 
L 677.731133 46.045731 
L 677.853958 45.787314 
L 678.553564 44.646718 
L 678.684616 44.432856 
L 679.75804 41.9378 
L 679.793706 41.902156 
L 679.793706 41.902156 
" clip-path="url(#p5bdc3ad882)" style="fill: none; stroke: #0969da; stroke-width: 1.6; stroke-linecap: square"/>
   </g>
   <g id="patch_3">
    <path d="M 62.261538 371.324361 
L 62.261538 26.215385 
" style="fill: none; stroke: #000000; stroke-width: 0.8; stroke-linejoin: miter; stroke-linecap: square"/>
   </g>
   <g id="patch_4">
    <path d="M 709.2 371.324361 
L 709.2 26.215385 
" style="fill: none; stroke: #000000; stroke-width: 0.8; stroke-linejoin: miter; stroke-linecap: square"/>
   </g>
   <g id="patch_5">
    <path d="M 62.261538 371.324361 
L 709.2 371.324361 
" style="fill: none; stroke: #000000; stroke-width: 0.8; stroke-linejoin: miter; stroke-linecap: square"/>
   </g>
   <g id="patch_6">
    <path d="M 62.261538 26.215385 
L 709.2 26.215385 
" style="fill: none; stroke: #000000; stroke-width: 0.8; stroke-linejoin: miter; stroke-linecap: square"/>
   </g>
   <g id="text_18">
    <!-- seaweedfs/seaweedfs star history -->
    <g transform="translate(283.974519 20.215385) scale(0.12 -0.12)">
     <defs>
      <path id="DejaVuSans-5a" d="M 269 3500 
L 844 3500 
L 1563 769 
L 2278 3500 
L 2956 3500 
L 3675 769 
L 4391 3500 
L 4966 3500 
L 4050 0 
L 3372 0 
L 2619 2869 
L 1863 0 
L 1184 0 
L 269 3500 
z
" transform="scale(0.015625)"/>
      <path id="DejaVuSans-47" d="M 2906 2969 
L 2906 4863 
L 3481 4863 
L 3481 0 
L 2906 0 
L 2906 525 
Q 2725 213 2448 61 
Q 2172 -91 1784 -91 
Q 1150 -91 751 415 
Q 353 922 353 1747 
Q 353 2572 751 3078 
Q 1150 3584 1784 3584 
Q 2172 3584 2448 3432 
Q 2725 3281 2906 2969 
z
M 947 1747 
Q 947 1113 1208 752 
Q 1469 391 1925 391 
Q 2381 391 2643 752 
Q 2906 1113 2906 1747 
Q 2906 2381 2643 2742 
Q 2381 3103 1925 3103 
Q 1469 3103 1208 2742 
Q 947 2381 947 1747 
z
" transform="scale(0.015625)"/>
      <path id="DejaVuSans-49" d="M 2375 4863 
L 2375 4384 
L 1825 4384 
Q 1516 4384 1395 4259 
Q 1275 4134 1275 3809 
L 1275 3500 
L 2222 3500 
L 2222 3053 
L 1275 3053 
L 1275 0 
L 697 0 
L 697 3053 
L 147 3053 
L 147 3500 
L 697 3500 
L 697 3744 
Q 697 4328 969 4595 
Q 1241 4863 1831 4863 
L 2375 4863 
z
" transform="scale(0.015625)"/>
      <path id="DejaVuSans-12" d="M 1625 4666 
L 2156 4666 
L 531 -594 
L 0 -594 
L 1625 4666 
z
" transform="scale(0.015625)"/>
      <path id="DejaVuSans-3" transform="scale(0.015625)"/>
      <path id="DejaVuSans-4b" d="M 3513 2113 
L 3513 0 
L 2938 0 
L 2938 2094 
Q 2938 2591 2744 2837 
Q 2550 3084 2163 3084 
Q 1697 3084 1428 2787 
Q 1159 2491 1159 1978 
L 1159 0 
L 581 0 
L 581 4863 
L 1159 4863 
L 1159 2956 
Q 1366 3272 1645 3428 
Q 1925 3584 2291 3584 
Q 2894 3584 3203 3211 
Q 3513 2838 3513 2113 
z
" transform="scale(0.015625)"/>
      <path id="DejaVuSans-4c" d="M 603 3500 
L 1178 3500 
L 1178 0 
L 603 0 
L 603 3500 
z
M 603 4863 
L 1178 4863 
L 1178 4134 
L 603 4134 
L 603 4863 
z
" transform="scale(0.015625)"/>
      <path id="DejaVuSans-52" d="M 1959 3097 
Q 1497 3097 1228 2736 
Q 959 2375 959 1747 
Q 959 1119 1226 758 
Q 1494 397 1959 397 
Q 2419 397 2687 759 
Q 2956 1122 2956 1747 
Q 2956 2369 2687 2733 
Q 2419 3097 1959 3097 
z
M 1959 3584 
Q 2709 3584 3137 3096 
Q 3566 2609 3566 1747 
Q 3566 888 3137 398 
Q 2709 -91 1959 -91 
Q 1206 -91 779 398 
Q 353 888 353 1747 
Q 353 2609 779 3096 
Q 1206 3584 1959 3584 
z
" transform="scale(0.015625)"/>
      <path id="DejaVuSans-5c" d="M 2059 -325 
Q 1816 -950 1584 -1140 
Q 1353 -1331 966 -1331 
L 506 -1331 
L 506 -850 
L 844 -850 
Q 1081 -850 1212 -737 
Q 1344 -625 1503 -206 
L 1606 56 
L 191 3500 
L 800 3500 
L 1894 763 
L 2988 3500 
L 3597 3500 
L 2059 -325 
z
" transform="scale(0.015625)"/>
     </defs>
     <use xlink:href="#DejaVuSans-56"/>
     <use xlink:href="#DejaVuSans-48" transform="translate(52.09375 0)"/>
     <use xlink:href="#DejaVuSans-44" transform="translate(113.625 0)"/>
     <use xlink:href="#DejaVuSans-5a" transform="translate(174.90625 0)"/>
     <use xlink:href="#DejaVuSans-48" transform="translate(256.6875 0)"/>
     <use xlink:href="#DejaVuSans-48" transform="translate(318.21875 0)"/>
     <use xlink:href="#DejaVuSans-47" transform="translate(379.75 0)"/>
     <use xlink:href="#DejaVuSans-49" transform="translate(443.234375 0)"/>
     <use xlink:href="#DejaVuSans-56" transform="translate(478.4375 0)"/>
     <use xlink:href="#DejaVuSans-12" transform="translate(530.53125 0)"/>
     <use xlink:href="#DejaVuSans-56" transform="translate(564.21875 0)"/>
     <use xlink:href="#DejaVuSans-48" transform="translate(616.3125 0)"/>
     <use xlink:href="#DejaVuSans-44" transform="translate(677.84375 0)"/>
     <use xlink:href="#DejaVuSans-5a" transform="translate(739.125 0)"/>
     <use xlink:href="#DejaVuSans-48" transform="translate(820.90625 0)"/>
     <use xlink:href="#DejaVuSans-48" transform="translate(882.4375 0)"/>
     <use xlink:href="#DejaVuSans-47" transform="translate(943.96875 0)"/>
     <use xlink:href="#DejaVuSans-49" transform="translate(1007.453125 0)"/>
     <use xlink:href="#DejaVuSans-56" transform="translate(1042.65625 0)"/>
     <use xlink:href="#DejaVuSans-3" transform="translate(1094.75 0)"/>
     <use xlink:href="#DejaVuSans-56" transform="translate(1126.53125 0)"/>
     <use xlink:href="#DejaVuSans-57" transform="translate(1178.625 0)"/>
     <use xlink:href="#DejaVuSans-44" transform="translate(1217.828125 0)"/>
     <use xlink:href="#DejaVuSans-55" transform="translate(1279.109375 0)"/>
     <use xlink:href="#DejaVuSans-3" transform="translate(1320.21875 0)"/>
     <use xlink:href="#DejaVuSans-4b" transform="translate(1352 0)"/>
     <use xlink:href="#DejaVuSans-4c" transform="translate(1415.375 0)"/>
     <use xlink:href="#DejaVuSans-56" transform="translate(1443.15625 0)"/>
     <use xlink:href="#DejaVuSans-57" transform="translate(1495.25 0)"/>
     <use xlink:href="#DejaVuSans-52" transform="translate(1534.453125 0)"/>
     <use xlink:href="#DejaVuSans-55" transform="translate(1595.640625 0)"/>
     <use xlink:href="#DejaVuSans-5c" transform="translate(1636.75 0)"/>
    </g>
   </g>
  </g>
 </g>
 <defs>
  <clipPath id="p5bdc3ad882">
   <rect x="62.261538" y="26.215385" width="646.938462" height="345.108977"/>
  </clipPath>
 </defs>
</svg>
